<?xml version="1.0" encoding="UTF-8"?>
<svg id="Layer_1" xmlns="http://www.w3.org/2000/svg" version="1.1" xmlns:xlink="http://www.w3.org/1999/xlink" viewBox="0 0 1920 1080">
  <!-- Generator: Adobe Illustrator 30.3.0, SVG Export Plug-In . SVG Version: 2.1.3 Build 182)  -->
  <defs>
    <style>
      .st0 {
        stroke-width: .22px;
      }

      .st0, .st1, .st2, .st3, .st4, .st5, .st6, .st7, .st8, .st9, .st10, .st11, .st12 {
        stroke: #5ab859;
        stroke-linecap: round;
        stroke-linejoin: round;
      }

      .st0, .st12 {
        fill: #5ab859;
      }

      .st1 {
        stroke-width: .37px;
      }

      .st1, .st2, .st3, .st5, .st13, .st8, .st11 {
        fill: none;
      }

      .st2 {
        stroke-width: .49px;
      }

      .st3 {
        stroke-width: .44px;
      }

      .st4 {
        stroke-width: .4px;
      }

      .st4, .st6, .st7, .st9, .st10 {
        fill: #6edb6b;
      }

      .st5, .st12 {
        stroke-width: .44px;
      }

      .st6 {
        stroke-width: .42px;
      }

      .st14 {
        fill: url(#Unnamed_Pattern_3);
      }

      .st7 {
        stroke-width: .44px;
      }

      .st8, .st10 {
        stroke-width: .47px;
      }

      .st9 {
        stroke-width: .33px;
      }

      .st11 {
        stroke-width: .4px;
      }
    </style>
    <pattern id="Unnamed_Pattern_3" data-name="Unnamed Pattern 3" x="0" y="0" width="285" height="260" patternTransform="translate(13885.05 14599.29) scale(2.85)" patternUnits="userSpaceOnUse" viewBox="0 0 285 260">
      <g>
        <rect class="st13" x="0" y="0" width="285" height="260"/>
        <g>
          <path class="st3" d="M256.47,272.98c2.27,7.61-2.47,15.65-10.49,17.17-6.08,1.16-12.3-2.1-14.81-7.76-.91-2.06-1.47-4.65-1.18-6.9.3-2.36,1.46-4.77,1.35-7.17-.09-1.91-.72-3.76-.67-5.68.11-4,1.95-7.57,5.98-8.78,3.05-.91,6.28.13,8.57,2.24,1.95,1.8,2.37,4.25,3.58,6.47,2.16,3.96,6.33,5.91,7.67,10.4Z"/>
          <path class="st4" d="M254.51,273.17c2.04,6.82-1.96,13.95-8.84,15.22-5.22.97-10.61-2.01-12.83-7.09-.81-1.85-1.31-4.17-1.09-6.18.24-2.1,1.21-4.25,1.08-6.39-.1-1.71-.66-3.36-.64-5.08.05-3.57,1.6-6.74,5.05-7.77,2.61-.78,5.41.18,7.4,2.1,1.7,1.63,2.08,3.83,3.15,5.82,1.9,3.56,5.51,5.34,6.71,9.37Z"/>
        </g>
        <path class="st1" d="M23.19,268.54c1.11-3.57.84-10.37.84-10.37,0,0,3.04,3.62,3.12,8.4"/>
        <g>
          <g>
            <path class="st10" d="M235.6,174.67c4.61,5.01,6.95,15.22,1.35,20.4-.1.1-.21.2-.33.3-.5.42-1,.75-1.49.97-.22.28-.49.54-.79.82l-.33.29c-5.94,4.78-15.69.97-19.98-4.33-2.44-3-2.68-6.47-.33-9.65,1.79-2.43,4.87-3.93,7.82-3.46.04-2.92,1.96-5.68,4.57-7.06,3.5-1.86,6.89-1.11,9.51,1.75Z"/>
            <path class="st8" d="M220.47,179.91s-3.36-5.3-7.13-5.64c0,0,.32-2.33.82-2.73.49-.4,4.65,2.26,7.46,7.39"/>
            <path class="st8" d="M218.27,174.35s-3.87-5.22.23-9.29c0,0,4.63,3.93,1.05,10.73"/>
            <path class="st8" d="M218.91,175.09s.57-6.44-.71-9.77"/>
            <path class="st8" d="M216.2,184.17s-3.83,2.83-.93,7.46"/>
            <path class="st8" d="M238.14,186.17s1.05,3.06-1.47,6.66"/>
          </g>
          <g>
            <path class="st3" d="M256.47,142.98c2.27,7.61-2.47,15.65-10.49,17.17-6.08,1.16-12.3-2.1-14.81-7.76-.91-2.06-1.47-4.65-1.18-6.9.3-2.36,1.46-4.77,1.35-7.17-.09-1.91-.72-3.76-.67-5.68.11-4,1.95-7.57,5.98-8.78,3.05-.91,6.28.13,8.57,2.24,1.95,1.8,2.37,4.25,3.58,6.47,2.16,3.96,6.33,5.91,7.67,10.4Z"/>
            <path class="st4" d="M254.51,143.17c2.04,6.82-1.96,13.95-8.84,15.22-5.22.97-10.61-2.01-12.83-7.09-.81-1.85-1.31-4.17-1.09-6.18.24-2.1,1.21-4.25,1.08-6.39-.1-1.71-.66-3.36-.64-5.08.05-3.57,1.6-6.74,5.05-7.77,2.61-.78,5.41.18,7.4,2.1,1.7,1.63,2.08,3.83,3.15,5.82,1.9,3.56,5.51,5.34,6.71,9.37Z"/>
            <path class="st3" d="M248.48,145.53c1.03,3.45-.34,6.9-3.06,7.71-2.72.81-5.76-1.33-6.79-4.78-1.03-3.45.34-6.9,3.06-7.71,2.72-.81,5.76,1.33,6.79,4.78Z"/>
            <path class="st3" d="M242.71,141.63s2.86-.18,4.12,3.51"/>
            <path class="st3" d="M240.87,150.51s1.31,1.74,2.96,1.72"/>
          </g>
          <g>
            <path class="st6" d="M296.61,248.01c-3.45,10.65-13.88,16.82-24.94,15.55-10.06-1.16-16.35-10.04-19.15-19.07-.57-1.84-1.01-3.71-1.33-5.6-.1-.58-.12-1.3.31-1.65.04-.03.07-.06.12-.08.25-.15.57-.14.87-.13.56.03,1.12.06,1.67.1-.26.33-.24.89-.16,1.35.29,1.68.68,3.34,1.18,4.97,2.48,8.01,8.05,15.88,16.98,16.9,9.8,1.13,19.05-4.34,22.1-13.79.42-1.28,1.83-4.71.7-6.09.3.03.6.05.91.07.43.03.89.06,1.24.32,1.77,1.3,0,5.61-.5,7.15Z"/>
            <path class="st8" d="M294.27,246.56c-3.05,9.45-12.31,14.93-22.1,13.79-8.92-1.02-14.5-8.9-16.98-16.9-.5-1.63-.89-3.3-1.18-4.97-.08-.46-.1-1.02.16-1.35.43.03.85.06,1.27.1-.13.31-.1.71-.04,1.06.27,1.56.63,3.12,1.1,4.65,2.31,7.5,7.54,14.86,15.89,15.83,9.17,1.06,17.83-4.07,20.69-12.91.37-1.14,1.58-4.08.8-5.48.36.03.71.06,1.08.08,1.13,1.38-.29,4.81-.7,6.09Z"/>
            <path class="st5" d="M293.1,245.86c-2.86,8.85-11.53,13.97-20.69,12.91-8.36-.96-13.58-8.33-15.89-15.83-.47-1.53-.84-3.09-1.1-4.65-.06-.34-.09-.75.04-1.06,2.42.19,4.85.45,7.25.64,7.17.58,14.34,1.16,21.52,1.75,3.22.27,6.44.54,9.68.76.79,1.4-.43,4.34-.8,5.48Z"/>
            <path class="st12" d="M262.8,240.7s-.53,1.79.14,2.33c.67.54-.14-2.33-.14-2.33Z"/>
            <path class="st12" d="M276.69,241.29s-.53,1.79.14,2.33c.67.54-.14-2.33-.14-2.33Z"/>
            <path class="st12" d="M270.22,240.79s-.53,1.79.14,2.33c.67.54-.14-2.33-.14-2.33Z"/>
            <path class="st12" d="M267.33,245.92s-.53,1.79.14,2.33c.67.54-.14-2.33-.14-2.33Z"/>
            <path class="st12" d="M274.17,247.29s-.54,1.79.14,2.33c.67.54-.14-2.33-.14-2.33Z"/>
            <path class="st12" d="M281.31,246.63s-.54,1.79.14,2.33c.67.54-.14-2.33-.14-2.33Z"/>
            <path class="st12" d="M284.34,242.1s-.54,1.79.14,2.33c.67.54-.14-2.33-.14-2.33Z"/>
            <path class="st12" d="M278.5,252.34s-.53,1.79.14,2.33c.67.54-.14-2.33-.14-2.33Z"/>
            <path class="st12" d="M270.98,252.73s-.54,1.79.14,2.33c.67.54-.14-2.33-.14-2.33Z"/>
            <path class="st12" d="M263.12,248.38s-.54,1.79.14,2.33c.67.54-.14-2.33-.14-2.33Z"/>
          </g>
          <g>
            <path class="st2" d="M241.67,217.97s5.97-2.53,7.39-6.77c0,0,.9.12,1.47,1.77s-4.9,5.14-7.56,6.05"/>
            <g>
              <path class="st7" d="M241.96,233.13c-1.71.84-3.78.13-4.62-1.58s-.13-3.78,1.58-4.62c1.71-.84,3.78-.13,4.62,1.58.84,1.71.13,3.78-1.58,4.62Z"/>
              <path class="st7" d="M234.69,216.25c-1.71.84-3.78.13-4.62-1.58-.84-1.71-.13-3.78,1.58-4.62,1.71-.84,3.78-.13,4.62,1.58.84,1.71.13,3.78-1.58,4.62Z"/>
              <path class="st7" d="M240.67,219.1c-1.71.84-3.78.13-4.62-1.58-.84-1.71-.13-3.78,1.58-4.62,1.71-.84,3.78-.13,4.62,1.58.84,1.71.13,3.78-1.58,4.62Z"/>
              <path class="st7" d="M243.43,224.72c-1.71.84-3.78.13-4.62-1.58-.84-1.71-.13-3.78,1.58-4.62s3.78-.13,4.62,1.58c.84,1.71.13,3.78-1.58,4.62Z"/>
              <path class="st7" d="M246.29,229.54c-1.71.84-3.78.13-4.62-1.58s-.13-3.78,1.58-4.62c1.71-.84,3.78-.13,4.62,1.58.84,1.71.13,3.78-1.58,4.62Z"/>
              <path class="st7" d="M231.06,231.5c-1.71.84-3.78.13-4.62-1.58-.84-1.71-.13-3.78,1.58-4.62,1.71-.84,3.78-.13,4.62,1.58.84,1.71.13,3.78-1.58,4.62Z"/>
              <path class="st7" d="M230.84,221.99c-1.71.84-3.78.13-4.62-1.58-.84-1.71-.13-3.78,1.58-4.62,1.71-.84,3.78-.13,4.62,1.58.84,1.71.13,3.78-1.58,4.62Z"/>
              <path class="st7" d="M237.37,221.7c-1.71.84-3.78.13-4.62-1.58-.84-1.71-.13-3.78,1.58-4.62,1.71-.84,3.78-.13,4.62,1.58.84,1.71.13,3.78-1.58,4.62Z"/>
              <path class="st7" d="M236.59,232.63c-1.71.84-3.78.13-4.62-1.58-.84-1.71-.13-3.78,1.58-4.62,1.71-.84,3.78-.13,4.62,1.58.84,1.71.13,3.78-1.58,4.62Z"/>
              <path class="st7" d="M240.24,227.54c-1.71.84-3.78.13-4.62-1.58-.84-1.71-.13-3.78,1.58-4.62,1.71-.84,3.78-.13,4.62,1.58.84,1.71.13,3.78-1.58,4.62Z"/>
              <path class="st7" d="M227.66,226.47c-1.71.84-3.78.13-4.62-1.58-.84-1.71-.13-3.78,1.58-4.62,1.71-.84,3.78-.13,4.62,1.58.84,1.71.13,3.78-1.58,4.62Z"/>
              <path class="st7" d="M234.46,226.97c-1.71.84-3.78.13-4.62-1.58-.84-1.71-.13-3.78,1.58-4.62,1.71-.84,3.78-.13,4.62,1.58.84,1.71.13,3.78-1.58,4.62Z"/>
              <path class="st7" d="M224.16,231.05c-1.71.84-3.78.13-4.62-1.58-.84-1.71-.13-3.78,1.58-4.62,1.71-.84,3.78-.13,4.62,1.58.84,1.71.13,3.78-1.58,4.62Z"/>
            </g>
          </g>
          <g>
            <circle class="st8" cx="269.36" cy="179.91" r="12.17" transform="translate(-24.59 43.83) rotate(-8.9)"/>
            <path class="st11" d="M279.71,179.91c0,5.72-4.63,10.35-10.35,10.35s-10.35-4.63-10.35-10.35,4.63-10.35,10.35-10.35,10.35,4.63,10.35,10.35Z"/>
            <g>
              <line class="st11" x1="269.36" y1="169.56" x2="269.36" y2="190.26"/>
              <line class="st11" x1="279.71" y1="179.91" x2="259.01" y2="179.91"/>
            </g>
            <g>
              <line class="st11" x1="276.68" y1="172.59" x2="262.04" y2="187.23"/>
              <line class="st11" x1="276.68" y1="187.23" x2="262.04" y2="172.59"/>
            </g>
            <circle class="st6" cx="269.36" cy="179.91" r="1.7" transform="translate(-1.23 1.86) rotate(-.39)"/>
          </g>
          <g>
            <path class="st6" d="M281.39,219.29s-10.52-.35-12.57-11.72c0,0,14.42-.16,12.57,11.72Z"/>
            <path class="st6" d="M268.82,207.58s7.15,4.24,12.57,11.72"/>
          </g>
          <g>
            <path class="st6" d="M276.8,157.89s-5.72-8.83,2.44-17.01c0,0,8.37,11.75-2.44,17.01Z"/>
            <path class="st6" d="M279.24,140.88s.6,8.29-2.44,17.01"/>
          </g>
        </g>
        <g>
          <g>
            <g>
              <path class="st1" d="M162.4,217.09c-.96-.28-2.05-.46-2.81-.12-.06-1.26-.65-3.43-3.51-5.47,0,0,2.49-.11,4.39,1.32.27.21.53.44.77.72,1.13,1.29,1.25,2.65,1.17,3.55Z"/>
              <path class="st1" d="M164.51,217.81c.45-1.02,1.05-2.71,1.1-4.46.03-1.4-.29-2.83-1.32-3.98-.53-.6-1.09-1.11-1.64-1.57-2.69-2.22-5.35-2.92-5.35-2.92,0,0,3.33,4.01,3.17,7.93"/>
              <path class="st1" d="M162.65,207.8c.29-4.13-2.4-9.92-2.4-9.92,0,0,2.46,1.67,4.44,4.21.82,1.05,1.56,2.25,2,3.55,1.51,4.41-1.08,7.71-1.08,7.71"/>
              <path class="st1" d="M165.69,203.54c1.11-3.57.84-10.37.84-10.37,0,0,3.04,3.62,3.12,8.4"/>
              <path class="st1" d="M166.9,206.36s3.37-7.18,7.7-9.35c0,0-4.48,8.82-4.8,12.1"/>
              <path class="st1" d="M166.51,211.6s4.78-3.63,7.84-4.64c0,0-4.03,4.91-4.48,6.21"/>
              <path class="st9" d="M168.02,241.53s-.68,2.8-2.47,3.07c0,0-.52,1.31-2.64,1.31,0,0-.93,1.89-2.91,1.23,0,0-2.25.61-3.75-.32-.06-.04-.12-.08-.18-.12,0,0-.39,0-.81-.06-.38-.19-.7-.4-.7-.4-.07,0-.15,0-.22,0-1.76-.06-3.28-1.83-3.28-1.83-2-.56-1.72-2.65-1.72-2.65-1.75-1.18-1.45-2.56-1.45-2.56-1.33-1.22-.33-3.92-.33-3.92-.98-2.18.69-3.91.69-3.91-.77-2,1.58-3.69,1.58-3.69-.4-2.94,1.62-3.21,1.62-3.21.17-2.48,1.61-2.56,1.61-2.56-.08-3.21,2.18-3.28,2.18-3.28,1.54-2.94,4.2-1.6,4.2-1.6.04-.02.08-.04.12-.06.77-.33,1.86-.16,2.81.12.72.21,1.36.49,1.72.65.11.02.24.04.39.07.96.18,2.61.6,3.48,1.43.17.15.3.32.4.51,0,0,2.94.37,2.58,3.67,0,0,1.83,1.32-.03,3.94,0,0,1.15.88-.1,3.02,0,0,1.53,1.36-.45,3.58,0,0,1,2.72-.76,3.94,0,0,.42,2.37-1.61,3.63Z"/>
              <path class="st1" d="M165.36,215.37s2.03-1.24,4.52-2.2c2.23-.86,4.82-1.49,6.66-.79,0,0-6.5,3.85-8.55,6.86"/>
              <path class="st1" d="M171.34,204.15s3.73-4.02,7.76-2.78c0,0-5.22,3.39-6.39,6.29"/>
            </g>
            <path class="st1" d="M164.51,217.81s3,4.6,6.47,5.62c0,0-6.93,2.83-17.89-1.53,0,0,5.31,9.95,17.3,12.07,0,0-11.52,2.67-22.12-2.6,0,0,2.96,8.56,17.28,13.24,0,0-9.7.18-16.2-2.84,0,0,4.11,3.62,10.65,5.38"/>
            <path class="st1" d="M159.46,217.02s4.43,7.14,11.48,10.34c0,0-9.37,2.39-19.47-2.91,0,0,3.12,9.74,18.16,13.45,0,0-11.25,2.78-22.05-2.63,0,0,5.27,9.19,15.33,10.64"/>
            <path class="st1" d="M168.39,219.76s-4.92,2.21-13.12-1.14c0,0,5.91,9.63,15.57,11.77,0,0-10.73,4.3-20.99-2.72,0,0,3.93,10.88,18.17,13.86,0,0-10.79,1.02-20.11-2.34"/>
          </g>
          <g>
            <path class="st10" d="M93.1,239.67c4.61,5.01,6.95,15.22,1.35,20.4-.1.1-.21.2-.33.3-.5.42-1,.75-1.49.97-.22.28-.49.54-.79.82l-.33.29c-5.94,4.78-15.69.97-19.98-4.33-2.44-3-2.68-6.47-.33-9.65,1.79-2.43,4.87-3.93,7.82-3.46.04-2.92,1.96-5.68,4.57-7.06,3.5-1.86,6.89-1.11,9.51,1.75Z"/>
            <path class="st8" d="M77.97,244.91s-3.36-5.3-7.13-5.64c0,0,.32-2.33.82-2.73.49-.4,4.65,2.26,7.46,7.39"/>
            <path class="st8" d="M75.77,239.35s-3.87-5.22.23-9.29c0,0,4.63,3.93,1.05,10.73"/>
            <path class="st8" d="M76.41,240.09s.57-6.44-.71-9.77"/>
            <path class="st8" d="M73.7,249.17s-3.83,2.83-.93,7.46"/>
            <path class="st8" d="M95.64,251.17s1.05,3.06-1.47,6.66"/>
          </g>
          <g>
            <path class="st6" d="M203.99,253.64c-2,6.92-9.56,10.73-16.42,7.96-5.21-2.1-8.36-7.64-7.5-13.19.31-2.02,1.16-4.27,2.49-5.85,1.39-1.65,3.46-2.93,4.54-4.81.87-1.5,1.29-3.22,2.27-4.66,2.05-3,5.2-4.82,8.87-3.76,2.77.8,4.73,3.18,5.44,5.92.61,2.33-.28,4.41-.44,6.69-.29,4.08,1.93,7.61.75,11.7Z"/>
            <path class="st8" d="M196,231.02s-3.51-.79-5.39,3.4"/>
            <path class="st8" d="M201.92,254.7s-2.36,5.45-7.62,5.72"/>
            <path class="st8" d="M197.48,229.11s2.33-5.09.74-8.08c0,0,1.9-.9,2.44-.72.54.17.58,4.58-1.89,9.18"/>
            <path class="st8" d="M200.56,224.75s2.02-5.43,7.06-4.35c0,0-.68,5.38-7.51,6.01"/>
            <path class="st8" d="M200.32,225.59s5.1-2.71,6.96-5.29"/>
          </g>
          <g>
            <path class="st3" d="M113.97,207.98c2.27,7.61-2.47,15.65-10.49,17.17-6.08,1.16-12.3-2.1-14.81-7.76-.91-2.06-1.47-4.65-1.18-6.9.3-2.36,1.46-4.77,1.35-7.17-.09-1.91-.72-3.76-.67-5.68.11-4,1.95-7.57,5.98-8.78,3.05-.91,6.28.13,8.57,2.24,1.95,1.8,2.37,4.25,3.58,6.47,2.16,3.96,6.33,5.91,7.67,10.4Z"/>
            <path class="st4" d="M112.01,208.17c2.04,6.82-1.96,13.95-8.84,15.22-5.22.97-10.61-2.01-12.83-7.09-.81-1.85-1.31-4.17-1.09-6.18.24-2.1,1.21-4.25,1.08-6.39-.1-1.71-.66-3.36-.64-5.08.05-3.57,1.6-6.74,5.05-7.77,2.61-.78,5.41.18,7.4,2.1,1.7,1.63,2.08,3.83,3.15,5.82,1.9,3.56,5.51,5.34,6.71,9.37Z"/>
            <path class="st3" d="M105.98,210.53c1.03,3.45-.34,6.9-3.06,7.71-2.72.81-5.76-1.33-6.79-4.78-1.03-3.45.34-6.9,3.06-7.71,2.72-.81,5.76,1.33,6.79,4.78Z"/>
            <path class="st3" d="M100.21,206.63s2.86-.18,4.12,3.51"/>
            <path class="st3" d="M98.37,215.51s1.31,1.74,2.96,1.72"/>
          </g>
          <g>
            <circle class="st8" cx="126.86" cy="244.91" r="12.17" transform="translate(-37.73 23.58) rotate(-9.25)"/>
            <path class="st11" d="M137.21,244.91c0,5.72-4.63,10.35-10.35,10.35s-10.35-4.63-10.35-10.35,4.63-10.35,10.35-10.35,10.35,4.63,10.35,10.35Z"/>
            <g>
              <line class="st11" x1="126.86" y1="234.56" x2="126.86" y2="255.26"/>
              <line class="st11" x1="137.21" y1="244.91" x2="116.51" y2="244.91"/>
            </g>
            <g>
              <line class="st11" x1="134.18" y1="237.59" x2="119.54" y2="252.23"/>
              <line class="st11" x1="134.18" y1="252.23" x2="119.54" y2="237.59"/>
            </g>
            <circle class="st6" cx="126.86" cy="244.91" r="1.7"/>
          </g>
          <g>
            <path class="st6" d="M134.3,222.89s-5.72-8.83,2.44-17.01c0,0,8.37,11.75-2.44,17.01Z"/>
            <path class="st6" d="M136.74,205.88s.6,8.29-2.44,17.01"/>
          </g>
        </g>
        <g>
          <g>
            <g>
              <path class="st1" d="M19.9,152.09c-.96-.28-2.05-.46-2.81-.12-.06-1.26-.65-3.43-3.51-5.47,0,0,2.49-.11,4.39,1.32.27.21.53.44.77.72,1.13,1.29,1.25,2.65,1.17,3.55Z"/>
              <path class="st1" d="M22.01,152.81c.45-1.02,1.05-2.71,1.1-4.46.03-1.4-.29-2.83-1.32-3.98-.53-.6-1.09-1.11-1.64-1.57-2.69-2.22-5.35-2.92-5.35-2.92,0,0,3.33,4.01,3.17,7.93"/>
              <path class="st1" d="M20.15,142.8c.29-4.13-2.4-9.92-2.4-9.92,0,0,2.46,1.67,4.44,4.21.82,1.05,1.56,2.25,2,3.55,1.51,4.41-1.08,7.71-1.08,7.71"/>
              <path class="st1" d="M23.19,138.54c1.11-3.57.84-10.37.84-10.37,0,0,3.04,3.62,3.12,8.4"/>
              <path class="st1" d="M24.4,141.36s3.37-7.18,7.7-9.35c0,0-4.48,8.82-4.8,12.1"/>
              <path class="st1" d="M24.01,146.6s4.78-3.63,7.84-4.64c0,0-4.03,4.91-4.48,6.21"/>
              <path class="st9" d="M25.52,176.53s-.68,2.8-2.47,3.07c0,0-.52,1.31-2.64,1.31,0,0-.93,1.89-2.91,1.23,0,0-2.25.61-3.75-.32-.06-.04-.12-.08-.18-.12,0,0-.39,0-.81-.06-.38-.19-.7-.4-.7-.4-.07,0-.15,0-.22,0-1.76-.06-3.28-1.83-3.28-1.83-2-.56-1.72-2.65-1.72-2.65-1.75-1.18-1.45-2.56-1.45-2.56-1.33-1.22-.33-3.92-.33-3.92-.98-2.18.69-3.91.69-3.91-.77-2,1.58-3.69,1.58-3.69-.4-2.94,1.62-3.21,1.62-3.21.17-2.48,1.61-2.56,1.61-2.56-.08-3.21,2.18-3.28,2.18-3.28,1.54-2.94,4.2-1.6,4.2-1.6.04-.02.08-.04.12-.06.77-.33,1.86-.16,2.81.12.72.21,1.36.49,1.72.65.11.02.24.04.39.07.96.18,2.61.6,3.48,1.43.17.15.3.32.4.51,0,0,2.94.37,2.58,3.67,0,0,1.83,1.32-.03,3.94,0,0,1.15.88-.1,3.02,0,0,1.53,1.36-.45,3.58,0,0,1,2.72-.76,3.94,0,0,.42,2.37-1.61,3.63Z"/>
              <path class="st1" d="M22.86,150.37s2.03-1.24,4.52-2.2c2.23-.86,4.82-1.49,6.66-.79,0,0-6.5,3.85-8.55,6.86"/>
              <path class="st1" d="M28.84,139.15s3.73-4.02,7.76-2.78c0,0-5.22,3.39-6.39,6.29"/>
            </g>
            <path class="st1" d="M22.01,152.81s3,4.6,6.47,5.62c0,0-6.93,2.83-17.89-1.53,0,0,5.31,9.95,17.3,12.07,0,0-11.52,2.67-22.12-2.6,0,0,2.96,8.56,17.28,13.24,0,0-9.7.18-16.2-2.84,0,0,4.11,3.62,10.65,5.38"/>
            <path class="st1" d="M16.96,152.02s4.43,7.14,11.48,10.34c0,0-9.37,2.39-19.47-2.91,0,0,3.12,9.74,18.16,13.45,0,0-11.25,2.78-22.05-2.63,0,0,5.27,9.19,15.33,10.64"/>
            <path class="st1" d="M25.89,154.76s-4.92,2.21-13.12-1.14c0,0,5.91,9.63,15.57,11.77,0,0-10.73,4.3-20.99-2.72,0,0,3.93,10.88,18.17,13.86,0,0-10.79,1.02-20.11-2.34"/>
          </g>
          <g>
            <path class="st6" d="M61.49,188.64c-2,6.92-9.56,10.73-16.42,7.96-5.21-2.1-8.36-7.64-7.5-13.19.31-2.02,1.16-4.27,2.49-5.85,1.39-1.65,3.46-2.93,4.54-4.81.87-1.5,1.29-3.22,2.27-4.66,2.05-3,5.2-4.82,8.87-3.76,2.77.8,4.73,3.18,5.44,5.92.61,2.33-.28,4.41-.44,6.69-.29,4.08,1.93,7.61.75,11.7Z"/>
            <path class="st8" d="M53.5,166.02s-3.51-.79-5.39,3.4"/>
            <path class="st8" d="M59.42,189.7s-2.36,5.45-7.62,5.72"/>
            <path class="st8" d="M54.98,164.11s2.33-5.09.74-8.08c0,0,1.9-.9,2.44-.72.54.17.58,4.58-1.89,9.18"/>
            <path class="st8" d="M58.06,159.75s2.02-5.43,7.06-4.35c0,0-.68,5.38-7.51,6.01"/>
            <path class="st8" d="M57.82,160.59s5.1-2.71,6.96-5.29"/>
          </g>
          <g>
            <path class="st6" d="M11.61,248.01c-3.45,10.65-13.88,16.82-24.94,15.55-10.06-1.16-16.35-10.04-19.15-19.07-.57-1.84-1.01-3.71-1.33-5.6-.1-.58-.12-1.3.31-1.65.04-.03.07-.06.12-.08.25-.15.57-.14.87-.13.56.03,1.12.06,1.67.1-.26.33-.24.89-.16,1.35.29,1.68.68,3.34,1.18,4.97,2.48,8.01,8.05,15.88,16.98,16.9,9.8,1.13,19.05-4.34,22.1-13.79.42-1.28,1.83-4.71.7-6.09.3.03.6.05.91.07.43.03.89.06,1.24.32,1.77,1.3,0,5.61-.5,7.15Z"/>
            <path class="st8" d="M9.27,246.56c-3.05,9.45-12.31,14.93-22.1,13.79-8.92-1.02-14.5-8.9-16.98-16.9-.5-1.63-.89-3.3-1.18-4.97-.08-.46-.1-1.02.16-1.35.43.03.85.06,1.27.1-.13.31-.1.71-.04,1.06.27,1.56.63,3.12,1.1,4.65,2.31,7.5,7.54,14.86,15.89,15.83,9.17,1.06,17.84-4.07,20.69-12.91.37-1.14,1.58-4.08.8-5.48.36.03.71.06,1.08.08,1.13,1.38-.29,4.81-.7,6.09Z"/>
            <path class="st5" d="M8.1,245.86c-2.86,8.85-11.53,13.97-20.69,12.91-8.36-.96-13.58-8.33-15.89-15.83-.47-1.53-.84-3.09-1.1-4.65-.06-.34-.09-.75.04-1.06,2.42.19,4.85.45,7.25.64,7.17.58,14.34,1.16,21.52,1.75,3.22.27,6.44.54,9.68.76.79,1.4-.43,4.34-.8,5.48Z"/>
            <path class="st12" d="M1.45,249.11s-.53,1.79.14,2.33c.67.54-.14-2.33-.14-2.33Z"/>
            <path class="st12" d="M4.38,243.39s-.53,1.79.14,2.33c.67.54-.14-2.33-.14-2.33Z"/>
          </g>
          <g>
            <path class="st6" d="M29.56,208.06c.19,2.83.45,9.93-2.26,11.89-2.24,1.63-7.22-1.11-9.15-2.19-1.91-1.07-3.73-2.39-5.2-4.01-1.03-1.15-2.19-2.57-2.14-4.19,0-.17.02-.34.05-.49.04-.21.1-.41.18-.61.58-.12,1.23-.32,1.89-.63,1.55-.71,2.9-2.65,3.18-3.07-.18.4-.85,1.97-.5,3.08.4,1.27,1.73,1.87,1.73,1.87,0,0-.03-3,.77-4.2.81-1.2.79-2.55.79-2.55,0,0,1.18.21,2.03,1.62.86,1.4,1.53,1.73,1.53,1.73,0,0,.4-1.26-.64-3.15-.89-1.6-1.25-1.74-1.32-1.74.15-.06,1.17-.35,3.09.23,1.15.35,2.42-.15,3.32-.69.28.2.53.45.76.74,1.37,1.72,1.72,4.22,1.87,6.35Z"/>
            <path class="st0" d="M25.7,216.79s.03.94.43,1.09c.4.15-.43-1.09-.43-1.09Z"/>
            <path class="st0" d="M26.65,213.03s.03.94.43,1.09-.43-1.09-.43-1.09Z"/>
            <path class="st0" d="M26.82,208.38s.03.94.43,1.09-.43-1.09-.43-1.09Z"/>
            <path class="st0" d="M21.15,215.97s.28.89.71.92c.43.03-.71-.92-.71-.92Z"/>
            <path class="st0" d="M17.26,213.74s.28.89.71.92c.43.03-.71-.92-.71-.92Z"/>
            <path class="st0" d="M23.14,213.21s.03.94.43,1.09c.4.15-.43-1.09-.43-1.09Z"/>
            <path class="st0" d="M23.38,209.24s.03.94.43,1.09c.4.15-.43-1.09-.43-1.09Z"/>
            <path class="st0" d="M19.4,206.43s.03.94.43,1.09c.4.15-.43-1.09-.43-1.09Z"/>
            <path class="st0" d="M23.35,202.59s.03.94.43,1.09-.43-1.09-.43-1.09Z"/>
            <path class="st0" d="M12.89,208.82s.03.94.43,1.09c.4.15-.43-1.09-.43-1.09Z"/>
            <path class="st0" d="M25.72,205s.03.94.43,1.09c.4.15-.43-1.09-.43-1.09Z"/>
            <path class="st0" d="M19.23,211.28s.03.94.43,1.09c.4.15-.43-1.09-.43-1.09Z"/>
            <path class="st0" d="M14.29,211.88s.03.94.43,1.09c.4.15-.43-1.09-.43-1.09Z"/>
            <path class="st8" d="M28.18,200.09s-.51.45-1.26.88c-.91.54-2.18,1.03-3.32.69-1.92-.58-2.94-.29-3.09-.23.08,0,.44.13,1.32,1.74,1.04,1.89.64,3.15.64,3.15,0,0-.68-.32-1.53-1.73-.85-1.41-2.03-1.62-2.03-1.62,0,0,.02,1.35-.79,2.55-.8,1.2-.77,4.2-.77,4.2,0,0-1.33-.6-1.73-1.87-.35-1.11.31-2.67.5-3.08-.28.42-1.63,2.36-3.18,3.07-.66.31-1.32.5-1.89.63-.83.17-1.46.21-1.62.21.22-.06,1.38-.48,2.57-3.14,1.32-2.96,3.61-3.56,3.61-3.56.23-.76-.78-2.6-.78-2.6.64-1.09,1.74-1.15,1.74-1.15,0,1.05.67,2.19.67,2.19,0,0,2.41-2.64,5.71-1.48,3.29,1.15,5.27,1.15,5.27,1.15Z"/>
          </g>
          <g>
            <path class="st8" d="M36.73,251.98c-2.09-.38-4.67-1.27-6.02-3.05,0,0-.2-.27-.45-.66h0c-.54-.91-1.26-2.47-.27-3.21.93-.69,2.51-.76,3.59-.96,2.13-.4,4.26-.79,6.35-1.31,3.15-.81,6.44-2.08,8.63-4.6,1.75-2.02,2.3-4.58,2.51-7.19.11-1.29.13-2.59.25-3.88.05-.56.03-1.26.21-1.79.04-.12.75-1.46.8-1.27l-.07-4.25-.03-1.26s2.03-1.11,3.32.53c1.28,1.64-.71,2.46.41,5.14.78,1.88,2.73,3.22,3.76,4.99,8.31,14.14-10.97,25-22.99,22.77Z"/>
            <path class="st8" d="M52.26,219.82l.07,4.25c-.05-.19-.76,1.15-.8,1.27-.18.53-.16,1.23-.21,1.79-.12,1.29-.14,2.59-.25,3.88-.21,2.6-.76,5.16-2.51,7.19-2.19,2.52-5.48,3.79-8.63,4.6-2.09.53-4.23.91-6.35,1.31-1.08.2-2.66.27-3.59.96-.99.73-.27,2.3.27,3.2-1.76-.79-3.59-2.01-4.46-3.69,0,0-1.62-3.15-.01-3.94,1.03-.5,2.6-.29,3.71-.29,2.15-.01,4.31,0,6.48-.15,3.25-.23,6.7-.87,9.31-2.96,2.09-1.68,3.09-4.1,3.78-6.61.34-1.26.59-2.53.94-3.79.14-.54.25-1.22.53-1.72.06-.11.98-1.26,1.03-1.11l.7-4.19Z"/>
            <path class="st8" d="M26.69,240.38s.06,2.37-1.46,2.78"/>
            <path class="st8" d="M31.25,244.52s-.24,2.35-1.4,2.98"/>
            <path class="st8" d="M55.97,224.23s-2.78.73-4.41-.22"/>
            <path class="st8" d="M53.94,224.77s6.12,9.98-.48,16.92c-6.6,6.95-21.74,5.86-22.78,4.82"/>
          </g>
          <g>
            <path class="st6" d="M70.87,203.88s-4.48,9.52-15.73,6.92c0,0,5.55-13.31,15.73-6.92Z"/>
            <path class="st6" d="M55.14,210.79s6.72-4.89,15.73-6.92"/>
          </g>
        </g>
        <g>
          <g>
            <path class="st10" d="M235.6,44.67c4.61,5.01,6.95,15.22,1.35,20.4-.1.1-.21.2-.33.3-.5.42-1,.75-1.49.97-.22.28-.49.54-.79.82l-.33.29c-5.94,4.78-15.69.97-19.98-4.33-2.44-3-2.68-6.47-.33-9.65,1.79-2.43,4.87-3.93,7.82-3.46.04-2.92,1.96-5.68,4.57-7.06,3.5-1.86,6.89-1.11,9.51,1.75Z"/>
            <path class="st8" d="M220.47,49.91s-3.36-5.3-7.13-5.64c0,0,.32-2.33.82-2.73.49-.4,4.65,2.26,7.46,7.39"/>
            <path class="st8" d="M218.27,44.35s-3.87-5.22.23-9.29c0,0,4.63,3.93,1.05,10.73"/>
            <path class="st8" d="M218.91,45.09s.57-6.44-.71-9.77"/>
            <path class="st8" d="M216.2,54.17s-3.83,2.83-.93,7.46"/>
            <path class="st8" d="M238.14,56.17s1.05,3.06-1.47,6.66"/>
          </g>
          <g>
            <path class="st3" d="M256.47,12.98c2.27,7.61-2.47,15.65-10.49,17.17-6.08,1.16-12.3-2.1-14.81-7.76-.91-2.06-1.47-4.65-1.18-6.9.3-2.36,1.46-4.77,1.35-7.17-.09-1.91-.72-3.76-.67-5.68.11-4,1.95-7.57,5.98-8.78,3.05-.91,6.28.13,8.57,2.24,1.95,1.8,2.37,4.25,3.58,6.47,2.16,3.96,6.33,5.91,7.67,10.4Z"/>
            <path class="st4" d="M254.51,13.17c2.04,6.82-1.96,13.95-8.84,15.22-5.22.97-10.61-2.01-12.83-7.09-.81-1.85-1.31-4.17-1.09-6.18.24-2.1,1.21-4.25,1.08-6.39-.1-1.71-.66-3.36-.64-5.08.05-3.57,1.6-6.74,5.05-7.77,2.61-.78,5.41.18,7.4,2.1,1.7,1.63,2.08,3.83,3.15,5.82,1.9,3.56,5.51,5.34,6.71,9.37Z"/>
            <path class="st3" d="M248.48,15.53c1.03,3.45-.34,6.9-3.06,7.71-2.72.81-5.76-1.33-6.79-4.78-1.03-3.45.34-6.9,3.06-7.71,2.72-.81,5.76,1.33,6.79,4.78Z"/>
            <path class="st3" d="M242.71,11.63s2.86-.18,4.12,3.51"/>
            <path class="st3" d="M240.87,20.51s1.31,1.74,2.96,1.72"/>
          </g>
          <g>
            <path class="st6" d="M296.61,118.01c-3.45,10.65-13.88,16.82-24.94,15.55-10.06-1.16-16.35-10.04-19.15-19.07-.57-1.84-1.01-3.71-1.33-5.6-.1-.58-.12-1.3.31-1.65.04-.03.07-.06.12-.08.25-.15.57-.14.87-.13.56.03,1.12.06,1.67.1-.26.33-.24.89-.16,1.35.29,1.68.68,3.34,1.18,4.97,2.48,8.01,8.05,15.88,16.98,16.9,9.8,1.13,19.05-4.34,22.1-13.79.42-1.28,1.83-4.71.7-6.09.3.03.6.05.91.07.43.03.89.06,1.24.32,1.77,1.3,0,5.61-.5,7.15Z"/>
            <path class="st8" d="M294.27,116.56c-3.05,9.45-12.31,14.93-22.1,13.79-8.92-1.02-14.5-8.9-16.98-16.9-.5-1.63-.89-3.3-1.18-4.97-.08-.46-.1-1.02.16-1.35.43.03.85.06,1.27.1-.13.31-.1.71-.04,1.06.27,1.56.63,3.12,1.1,4.65,2.31,7.5,7.54,14.86,15.89,15.83,9.17,1.06,17.83-4.07,20.69-12.91.37-1.14,1.58-4.08.8-5.48.36.03.71.06,1.08.08,1.13,1.38-.29,4.81-.7,6.09Z"/>
            <path class="st5" d="M293.1,115.86c-2.86,8.85-11.53,13.97-20.69,12.91-8.36-.96-13.58-8.33-15.89-15.83-.47-1.53-.84-3.09-1.1-4.65-.06-.34-.09-.75.04-1.06,2.42.18,4.85.45,7.25.64,7.17.58,14.34,1.16,21.52,1.75,3.22.27,6.44.54,9.68.76.79,1.4-.43,4.34-.8,5.48Z"/>
            <path class="st12" d="M262.8,110.7s-.53,1.79.14,2.33c.67.54-.14-2.33-.14-2.33Z"/>
            <path class="st12" d="M276.69,111.29s-.53,1.79.14,2.33c.67.54-.14-2.33-.14-2.33Z"/>
            <path class="st12" d="M270.22,110.79s-.53,1.79.14,2.33c.67.54-.14-2.33-.14-2.33Z"/>
            <path class="st12" d="M267.33,115.92s-.53,1.79.14,2.33c.67.54-.14-2.33-.14-2.33Z"/>
            <path class="st12" d="M274.17,117.29s-.54,1.79.14,2.33c.67.54-.14-2.33-.14-2.33Z"/>
            <path class="st12" d="M281.31,116.63s-.54,1.79.14,2.33c.67.54-.14-2.33-.14-2.33Z"/>
            <path class="st12" d="M284.34,112.1s-.54,1.79.14,2.33c.67.54-.14-2.33-.14-2.33Z"/>
            <path class="st12" d="M278.5,122.34s-.53,1.79.14,2.33c.67.54-.14-2.33-.14-2.33Z"/>
            <path class="st12" d="M270.98,122.73s-.54,1.79.14,2.33c.67.54-.14-2.33-.14-2.33Z"/>
            <path class="st12" d="M263.12,118.38s-.54,1.79.14,2.33c.67.54-.14-2.33-.14-2.33Z"/>
          </g>
          <g>
            <path class="st2" d="M241.67,87.97s5.97-2.53,7.39-6.77c0,0,.9.12,1.47,1.77s-4.9,5.14-7.56,6.05"/>
            <g>
              <path class="st7" d="M241.96,103.13c-1.71.84-3.78.13-4.62-1.58s-.13-3.78,1.58-4.62c1.71-.84,3.78-.13,4.62,1.58.84,1.71.13,3.78-1.58,4.62Z"/>
              <path class="st7" d="M234.69,86.25c-1.71.84-3.78.13-4.62-1.58-.84-1.71-.13-3.78,1.58-4.62,1.71-.84,3.78-.13,4.62,1.58.84,1.71.13,3.78-1.58,4.62Z"/>
              <path class="st7" d="M240.67,89.1c-1.71.84-3.78.13-4.62-1.58-.84-1.71-.13-3.78,1.58-4.62,1.71-.84,3.78-.13,4.62,1.58.84,1.71.13,3.78-1.58,4.62Z"/>
              <path class="st7" d="M243.43,94.72c-1.71.84-3.78.13-4.62-1.58-.84-1.71-.13-3.78,1.58-4.62s3.78-.13,4.62,1.58c.84,1.71.13,3.78-1.58,4.62Z"/>
              <path class="st7" d="M246.29,99.54c-1.71.84-3.78.13-4.62-1.58s-.13-3.78,1.58-4.62c1.71-.84,3.78-.13,4.62,1.58.84,1.71.13,3.78-1.58,4.62Z"/>
              <path class="st7" d="M231.06,101.5c-1.71.84-3.78.13-4.62-1.58-.84-1.71-.13-3.78,1.58-4.62,1.71-.84,3.78-.13,4.62,1.58.84,1.71.13,3.78-1.58,4.62Z"/>
              <path class="st7" d="M230.84,91.99c-1.71.84-3.78.13-4.62-1.58-.84-1.71-.13-3.78,1.58-4.62,1.71-.84,3.78-.13,4.62,1.58.84,1.71.13,3.78-1.58,4.62Z"/>
              <path class="st7" d="M237.37,91.7c-1.71.84-3.78.13-4.62-1.58-.84-1.71-.13-3.78,1.58-4.62,1.71-.84,3.78-.13,4.62,1.58.84,1.71.13,3.78-1.58,4.62Z"/>
              <path class="st7" d="M236.59,102.63c-1.71.84-3.78.13-4.62-1.58-.84-1.71-.13-3.78,1.58-4.62,1.71-.84,3.78-.13,4.62,1.58.84,1.71.13,3.78-1.58,4.62Z"/>
              <path class="st7" d="M240.24,97.54c-1.71.84-3.78.13-4.62-1.58-.84-1.71-.13-3.78,1.58-4.62,1.71-.84,3.78-.13,4.62,1.58.84,1.71.13,3.78-1.58,4.62Z"/>
              <path class="st7" d="M227.66,96.47c-1.71.84-3.78.13-4.62-1.58-.84-1.71-.13-3.78,1.58-4.62,1.71-.84,3.78-.13,4.62,1.58.84,1.71.13,3.78-1.58,4.62Z"/>
              <path class="st7" d="M234.46,96.97c-1.71.84-3.78.13-4.62-1.58-.84-1.71-.13-3.78,1.58-4.62,1.71-.84,3.78-.13,4.62,1.58.84,1.71.13,3.78-1.58,4.62Z"/>
              <path class="st7" d="M224.16,101.05c-1.71.84-3.78.13-4.62-1.58-.84-1.71-.13-3.78,1.58-4.62,1.71-.84,3.78-.13,4.62,1.58.84,1.71.13,3.78-1.58,4.62Z"/>
            </g>
          </g>
          <g>
            <circle class="st8" cx="269.36" cy="49.91" r="12.17" transform="translate(-4.42 40.29) rotate(-8.49)"/>
            <path class="st11" d="M279.71,49.91c0,5.72-4.63,10.35-10.35,10.35s-10.35-4.63-10.35-10.35,4.63-10.35,10.35-10.35,10.35,4.63,10.35,10.35Z"/>
            <g>
              <line class="st11" x1="269.36" y1="39.56" x2="269.36" y2="60.26"/>
              <line class="st11" x1="279.71" y1="49.91" x2="259.01" y2="49.91"/>
            </g>
            <g>
              <line class="st11" x1="276.68" y1="42.59" x2="262.04" y2="57.23"/>
              <line class="st11" x1="276.68" y1="57.23" x2="262.04" y2="42.59"/>
            </g>
            <circle class="st6" cx="269.36" cy="49.91" r="1.7" transform="translate(-.71 3.98) rotate(-.84)"/>
          </g>
          <g>
            <path class="st6" d="M281.39,89.29s-10.52-.35-12.57-11.72c0,0,14.42-.16,12.57,11.72Z"/>
            <path class="st6" d="M268.82,77.58s7.15,4.24,12.57,11.72"/>
          </g>
          <g>
            <path class="st6" d="M276.8,27.89s-5.72-8.83,2.44-17.01c0,0,8.37,11.75-2.44,17.01Z"/>
            <path class="st6" d="M279.24,10.88s.6,8.29-2.44,17.01"/>
          </g>
        </g>
        <g>
          <g>
            <g>
              <path class="st1" d="M162.4,87.09c-.96-.28-2.05-.46-2.81-.12-.06-1.26-.65-3.43-3.51-5.47,0,0,2.49-.11,4.39,1.32.27.21.53.44.77.72,1.13,1.29,1.25,2.65,1.17,3.55Z"/>
              <path class="st1" d="M164.51,87.81c.45-1.02,1.05-2.71,1.1-4.46.03-1.4-.29-2.83-1.32-3.98-.53-.6-1.09-1.11-1.64-1.57-2.69-2.22-5.35-2.92-5.35-2.92,0,0,3.33,4.01,3.17,7.93"/>
              <path class="st1" d="M162.65,77.8c.29-4.13-2.4-9.92-2.4-9.92,0,0,2.46,1.67,4.44,4.21.82,1.05,1.56,2.25,2,3.55,1.51,4.41-1.08,7.71-1.08,7.71"/>
              <path class="st1" d="M165.69,73.54c1.11-3.57.84-10.37.84-10.37,0,0,3.04,3.62,3.12,8.4"/>
              <path class="st1" d="M166.9,76.36s3.37-7.18,7.7-9.35c0,0-4.48,8.82-4.8,12.1"/>
              <path class="st1" d="M166.51,81.6s4.78-3.63,7.84-4.64c0,0-4.03,4.91-4.48,6.21"/>
              <path class="st9" d="M168.02,111.53s-.68,2.8-2.47,3.07c0,0-.52,1.31-2.64,1.31,0,0-.93,1.89-2.91,1.23,0,0-2.25.61-3.75-.32-.06-.04-.12-.08-.18-.12,0,0-.39,0-.81-.06-.38-.19-.7-.4-.7-.4-.07,0-.15,0-.22,0-1.76-.06-3.28-1.83-3.28-1.83-2-.56-1.72-2.65-1.72-2.65-1.75-1.18-1.45-2.56-1.45-2.56-1.33-1.22-.33-3.92-.33-3.92-.98-2.18.69-3.91.69-3.91-.77-2,1.58-3.69,1.58-3.69-.4-2.94,1.62-3.21,1.62-3.21.17-2.48,1.61-2.56,1.61-2.56-.08-3.21,2.18-3.28,2.18-3.28,1.54-2.94,4.2-1.6,4.2-1.6.04-.02.08-.04.12-.06.77-.33,1.86-.16,2.81.12.72.21,1.36.49,1.72.65.11.02.24.04.39.07.96.18,2.61.6,3.48,1.43.17.15.3.32.4.51,0,0,2.94.37,2.58,3.67,0,0,1.83,1.32-.03,3.94,0,0,1.15.88-.1,3.02,0,0,1.53,1.36-.45,3.58,0,0,1,2.72-.76,3.94,0,0,.42,2.37-1.61,3.63Z"/>
              <path class="st1" d="M165.36,85.37s2.03-1.24,4.52-2.2c2.23-.86,4.82-1.49,6.66-.79,0,0-6.5,3.85-8.55,6.86"/>
              <path class="st1" d="M171.34,74.15s3.73-4.02,7.76-2.78c0,0-5.22,3.39-6.39,6.29"/>
            </g>
            <path class="st1" d="M164.51,87.81s3,4.6,6.47,5.62c0,0-6.93,2.83-17.89-1.53,0,0,5.31,9.95,17.3,12.07,0,0-11.52,2.67-22.12-2.6,0,0,2.96,8.56,17.28,13.24,0,0-9.7.18-16.2-2.84,0,0,4.11,3.62,10.65,5.38"/>
            <path class="st1" d="M159.46,87.02s4.43,7.14,11.48,10.34c0,0-9.37,2.39-19.47-2.91,0,0,3.12,9.74,18.16,13.45,0,0-11.25,2.78-22.05-2.63,0,0,5.27,9.19,15.33,10.64"/>
            <path class="st1" d="M168.39,89.76s-4.92,2.21-13.12-1.14c0,0,5.91,9.63,15.57,11.77,0,0-10.73,4.3-20.99-2.72,0,0,3.93,10.88,18.17,13.86,0,0-10.79,1.02-20.11-2.34"/>
          </g>
          <g>
            <path class="st10" d="M93.1,109.67c4.61,5.01,6.95,15.22,1.35,20.4-.1.1-.21.2-.33.3-.5.42-1,.75-1.49.97-.22.28-.49.54-.79.82l-.33.29c-5.94,4.78-15.69.97-19.98-4.33-2.44-3-2.68-6.47-.33-9.65,1.79-2.43,4.87-3.93,7.82-3.46.04-2.92,1.96-5.68,4.57-7.06,3.5-1.86,6.89-1.11,9.51,1.75Z"/>
            <path class="st8" d="M77.97,114.91s-3.36-5.3-7.13-5.64c0,0,.32-2.33.82-2.73.49-.4,4.65,2.26,7.46,7.39"/>
            <path class="st8" d="M75.77,109.35s-3.87-5.22.23-9.29c0,0,4.63,3.93,1.05,10.73"/>
            <path class="st8" d="M76.41,110.09s.57-6.44-.71-9.77"/>
            <path class="st8" d="M73.7,119.17s-3.83,2.83-.93,7.46"/>
            <path class="st8" d="M95.64,121.17s1.05,3.06-1.47,6.66"/>
          </g>
          <g>
            <path class="st6" d="M203.99,123.64c-2,6.92-9.56,10.73-16.42,7.96-5.21-2.1-8.36-7.64-7.5-13.19.31-2.02,1.16-4.27,2.49-5.85,1.39-1.65,3.46-2.93,4.54-4.81.87-1.5,1.29-3.22,2.27-4.66,2.05-3,5.2-4.82,8.87-3.76,2.77.8,4.73,3.18,5.44,5.92.61,2.33-.28,4.41-.44,6.69-.29,4.08,1.93,7.61.75,11.7Z"/>
            <path class="st8" d="M196,101.02s-3.51-.79-5.39,3.4"/>
            <path class="st8" d="M201.92,124.7s-2.36,5.45-7.62,5.72"/>
            <path class="st8" d="M197.48,99.11s2.33-5.09.74-8.08c0,0,1.9-.9,2.44-.72.54.17.58,4.58-1.89,9.18"/>
            <path class="st8" d="M200.56,94.75s2.02-5.43,7.06-4.35c0,0-.68,5.38-7.51,6.01"/>
            <path class="st8" d="M200.32,95.59s5.1-2.71,6.96-5.29"/>
          </g>
          <g>
            <path class="st3" d="M113.97,77.98c2.27,7.61-2.47,15.65-10.49,17.17-6.08,1.16-12.3-2.1-14.81-7.76-.91-2.06-1.47-4.65-1.18-6.9.3-2.36,1.46-4.77,1.35-7.17-.09-1.91-.72-3.76-.67-5.68.11-4,1.95-7.57,5.98-8.78,3.05-.91,6.28.13,8.57,2.24,1.95,1.8,2.37,4.25,3.58,6.47,2.16,3.96,6.33,5.91,7.67,10.4Z"/>
            <path class="st4" d="M112.01,78.17c2.04,6.82-1.96,13.95-8.84,15.22-5.22.97-10.61-2.01-12.83-7.09-.81-1.85-1.31-4.17-1.09-6.18.24-2.1,1.21-4.25,1.08-6.39-.1-1.71-.66-3.36-.64-5.08.05-3.57,1.6-6.74,5.05-7.77,2.61-.78,5.41.18,7.4,2.1,1.7,1.63,2.08,3.83,3.15,5.82,1.9,3.56,5.51,5.34,6.71,9.37Z"/>
            <path class="st3" d="M105.98,80.53c1.03,3.45-.34,6.9-3.06,7.71-2.72.81-5.76-1.33-6.79-4.78-1.03-3.45.34-6.9,3.06-7.71,2.72-.81,5.76,1.33,6.79,4.78Z"/>
            <path class="st3" d="M100.21,76.63s2.86-.18,4.12,3.51"/>
            <path class="st3" d="M98.37,85.51s1.31,1.74,2.96,1.72"/>
          </g>
          <g>
            <path class="st6" d="M154.11,183.01c-3.45,10.65-13.88,16.82-24.94,15.55-10.06-1.16-16.35-10.04-19.15-19.07-.57-1.84-1.01-3.71-1.33-5.6-.1-.58-.12-1.3.31-1.65.04-.03.07-.06.12-.08.25-.15.57-.14.87-.13.56.03,1.12.06,1.67.1-.26.33-.24.89-.16,1.35.29,1.68.68,3.34,1.18,4.97,2.48,8.01,8.05,15.88,16.98,16.9,9.8,1.13,19.05-4.34,22.1-13.79.42-1.28,1.83-4.71.7-6.09.3.03.6.05.91.07.43.03.89.06,1.24.32,1.77,1.3,0,5.61-.5,7.15Z"/>
            <path class="st8" d="M151.77,181.56c-3.05,9.45-12.31,14.93-22.1,13.79-8.92-1.02-14.5-8.9-16.98-16.9-.5-1.63-.89-3.3-1.18-4.97-.08-.46-.1-1.02.16-1.35.43.03.85.06,1.27.1-.13.31-.1.71-.04,1.06.27,1.56.63,3.12,1.1,4.65,2.31,7.5,7.54,14.86,15.89,15.83,9.17,1.06,17.83-4.07,20.69-12.91.37-1.14,1.58-4.08.8-5.48.36.03.71.06,1.08.08,1.13,1.38-.29,4.81-.7,6.09Z"/>
            <path class="st5" d="M150.6,180.86c-2.86,8.85-11.53,13.97-20.69,12.91-8.36-.96-13.58-8.33-15.89-15.83-.47-1.53-.84-3.09-1.1-4.65-.06-.34-.09-.75.04-1.06,2.42.18,4.85.45,7.25.64,7.17.58,14.34,1.16,21.52,1.75,3.22.27,6.44.54,9.68.76.79,1.4-.43,4.34-.8,5.48Z"/>
            <path class="st12" d="M120.3,175.7s-.53,1.79.14,2.33c.67.54-.14-2.33-.14-2.33Z"/>
            <path class="st12" d="M134.19,176.29s-.53,1.79.14,2.33c.67.54-.14-2.33-.14-2.33Z"/>
            <path class="st12" d="M127.72,175.79s-.53,1.79.14,2.33c.67.54-.14-2.33-.14-2.33Z"/>
            <path class="st12" d="M124.83,180.92s-.53,1.79.14,2.33c.67.54-.14-2.33-.14-2.33Z"/>
            <path class="st12" d="M131.67,182.29s-.54,1.79.14,2.33c.67.54-.14-2.33-.14-2.33Z"/>
            <path class="st12" d="M138.81,181.63s-.54,1.79.14,2.33c.67.54-.14-2.33-.14-2.33Z"/>
            <path class="st12" d="M141.84,177.1s-.54,1.79.14,2.33c.67.54-.14-2.33-.14-2.33Z"/>
            <path class="st12" d="M143.95,184.11s-.53,1.79.14,2.33c.67.54-.14-2.33-.14-2.33Z"/>
            <path class="st12" d="M136,187.34s-.53,1.79.14,2.33c.67.54-.14-2.33-.14-2.33Z"/>
            <path class="st12" d="M128.48,187.73s-.54,1.79.14,2.33c.67.54-.14-2.33-.14-2.33Z"/>
            <path class="st12" d="M120.62,183.38s-.54,1.79.14,2.33c.67.54-.14-2.33-.14-2.33Z"/>
            <path class="st12" d="M146.88,178.39s-.53,1.79.14,2.33c.67.54-.14-2.33-.14-2.33Z"/>
          </g>
          <g>
            <path class="st6" d="M172.06,143.06c.19,2.83.45,9.93-2.26,11.89-2.24,1.63-7.22-1.11-9.15-2.19-1.91-1.07-3.73-2.39-5.2-4.01-1.03-1.15-2.19-2.57-2.14-4.19,0-.17.02-.34.05-.49.04-.21.1-.41.18-.61.57-.12,1.23-.32,1.89-.63,1.55-.71,2.9-2.65,3.18-3.07-.18.4-.85,1.97-.5,3.08.4,1.27,1.73,1.87,1.73,1.87,0,0-.03-3,.77-4.2.81-1.2.79-2.55.79-2.55,0,0,1.18.21,2.03,1.62.86,1.4,1.53,1.73,1.53,1.73,0,0,.4-1.26-.64-3.15-.89-1.6-1.25-1.74-1.32-1.74.15-.06,1.17-.35,3.09.23,1.15.35,2.42-.15,3.32-.69.28.2.53.45.76.74,1.37,1.72,1.72,4.22,1.87,6.35Z"/>
            <path class="st0" d="M168.2,151.79s.03.94.43,1.09c.4.15-.43-1.09-.43-1.09Z"/>
            <path class="st0" d="M169.15,148.03s.03.94.43,1.09-.43-1.09-.43-1.09Z"/>
            <path class="st0" d="M169.32,143.38s.03.94.43,1.09-.43-1.09-.43-1.09Z"/>
            <path class="st0" d="M163.65,150.97s.28.89.71.92c.43.03-.71-.92-.71-.92Z"/>
            <path class="st0" d="M159.76,148.74s.28.89.71.92c.43.03-.71-.92-.71-.92Z"/>
            <path class="st0" d="M165.64,148.21s.03.94.43,1.09c.4.15-.43-1.09-.43-1.09Z"/>
            <path class="st0" d="M165.88,144.24s.03.94.43,1.09c.4.15-.43-1.09-.43-1.09Z"/>
            <path class="st0" d="M161.9,141.43s.03.94.43,1.09c.4.15-.43-1.09-.43-1.09Z"/>
            <path class="st0" d="M165.85,137.59s.03.94.43,1.09-.43-1.09-.43-1.09Z"/>
            <path class="st0" d="M155.39,143.82s.03.94.43,1.09c.4.15-.43-1.09-.43-1.09Z"/>
            <path class="st0" d="M168.22,140s.03.94.43,1.09c.4.15-.43-1.09-.43-1.09Z"/>
            <path class="st0" d="M161.73,146.28s.03.94.43,1.09c.4.15-.43-1.09-.43-1.09Z"/>
            <path class="st0" d="M156.79,146.88s.03.94.43,1.09c.4.15-.43-1.09-.43-1.09Z"/>
            <path class="st8" d="M170.68,135.09s-.51.45-1.26.88c-.91.54-2.18,1.03-3.32.69-1.92-.58-2.94-.29-3.09-.23.08,0,.44.13,1.32,1.74,1.04,1.89.64,3.15.64,3.15,0,0-.68-.32-1.53-1.73-.85-1.41-2.03-1.62-2.03-1.62,0,0,.02,1.35-.79,2.55-.8,1.2-.77,4.2-.77,4.2,0,0-1.33-.6-1.73-1.87-.35-1.11.31-2.67.5-3.08-.28.42-1.63,2.36-3.18,3.07-.66.31-1.32.5-1.89.63-.83.17-1.46.21-1.62.21.22-.06,1.38-.48,2.57-3.14,1.32-2.96,3.61-3.56,3.61-3.56.23-.76-.78-2.6-.78-2.6.64-1.09,1.74-1.15,1.74-1.15,0,1.05.67,2.19.67,2.19,0,0,2.41-2.64,5.71-1.48,3.29,1.15,5.27,1.15,5.27,1.15Z"/>
          </g>
          <g>
            <path class="st2" d="M99.17,152.97s5.97-2.53,7.39-6.77c0,0,.9.12,1.47,1.77s-4.9,5.14-7.56,6.05"/>
            <g>
              <path class="st7" d="M99.46,168.13c-1.71.84-3.78.13-4.62-1.58s-.13-3.78,1.58-4.62c1.71-.84,3.78-.13,4.62,1.58.84,1.71.13,3.78-1.58,4.62Z"/>
              <path class="st7" d="M92.19,151.25c-1.71.84-3.78.13-4.62-1.58-.84-1.71-.13-3.78,1.58-4.62,1.71-.84,3.78-.13,4.62,1.58.84,1.71.13,3.78-1.58,4.62Z"/>
              <path class="st7" d="M98.17,154.1c-1.71.84-3.78.13-4.62-1.58-.84-1.71-.13-3.78,1.58-4.62,1.71-.84,3.78-.13,4.62,1.58.84,1.71.13,3.78-1.58,4.62Z"/>
              <path class="st7" d="M100.93,159.72c-1.71.84-3.78.13-4.62-1.58-.84-1.71-.13-3.78,1.58-4.62s3.78-.13,4.62,1.58c.84,1.71.13,3.78-1.58,4.62Z"/>
              <path class="st7" d="M103.79,164.54c-1.71.84-3.78.13-4.62-1.58s-.13-3.78,1.58-4.62c1.71-.84,3.78-.13,4.62,1.58.84,1.71.13,3.78-1.58,4.62Z"/>
              <path class="st7" d="M88.56,166.5c-1.71.84-3.78.13-4.62-1.58-.84-1.71-.13-3.78,1.58-4.62,1.71-.84,3.78-.13,4.62,1.58.84,1.71.13,3.78-1.58,4.62Z"/>
              <path class="st7" d="M88.34,156.99c-1.71.84-3.78.13-4.62-1.58-.84-1.71-.13-3.78,1.58-4.62,1.71-.84,3.78-.13,4.62,1.58.84,1.71.13,3.78-1.58,4.62Z"/>
              <path class="st7" d="M94.87,156.7c-1.71.84-3.78.13-4.62-1.58-.84-1.71-.13-3.78,1.58-4.62,1.71-.84,3.78-.13,4.62,1.58.84,1.71.13,3.78-1.58,4.62Z"/>
              <path class="st7" d="M94.09,167.63c-1.71.84-3.78.13-4.62-1.58-.84-1.71-.13-3.78,1.58-4.62,1.71-.84,3.78-.13,4.62,1.58.84,1.71.13,3.78-1.58,4.62Z"/>
              <path class="st7" d="M97.74,162.54c-1.71.84-3.78.13-4.62-1.58-.84-1.71-.13-3.78,1.58-4.62,1.71-.84,3.78-.13,4.62,1.58.84,1.71.13,3.78-1.58,4.62Z"/>
              <path class="st7" d="M85.16,161.47c-1.71.84-3.78.13-4.62-1.58-.84-1.71-.13-3.78,1.58-4.62,1.71-.84,3.78-.13,4.62,1.58.84,1.71.13,3.78-1.58,4.62Z"/>
              <path class="st7" d="M91.96,161.97c-1.71.84-3.78.13-4.62-1.58-.84-1.71-.13-3.78,1.58-4.62,1.71-.84,3.78-.13,4.62,1.58.84,1.71.13,3.78-1.58,4.62Z"/>
              <path class="st7" d="M81.66,166.05c-1.71.84-3.78.13-4.62-1.58-.84-1.71-.13-3.78,1.58-4.62,1.71-.84,3.78-.13,4.62,1.58.84,1.71.13,3.78-1.58,4.62Z"/>
            </g>
          </g>
          <g>
            <path class="st8" d="M179.23,186.98c-2.09-.38-4.67-1.27-6.02-3.05,0,0-.2-.27-.45-.66h0c-.54-.91-1.26-2.47-.27-3.21.93-.69,2.51-.76,3.59-.96,2.13-.4,4.26-.79,6.35-1.31,3.15-.81,6.44-2.08,8.63-4.6,1.75-2.02,2.3-4.58,2.51-7.19.11-1.29.13-2.59.25-3.88.05-.56.03-1.26.21-1.79.04-.12.75-1.46.8-1.27l-.07-4.25-.03-1.26s2.03-1.11,3.32.53c1.28,1.64-.71,2.46.41,5.14.78,1.88,2.73,3.22,3.76,4.99,8.31,14.14-10.97,25-22.99,22.77Z"/>
            <path class="st8" d="M194.76,154.82l.07,4.25c-.05-.19-.76,1.15-.8,1.27-.18.53-.16,1.23-.21,1.79-.12,1.29-.14,2.59-.25,3.88-.21,2.6-.76,5.16-2.51,7.19-2.19,2.52-5.48,3.79-8.63,4.6-2.09.53-4.23.91-6.35,1.31-1.08.2-2.66.27-3.59.96-.99.73-.27,2.3.27,3.2-1.76-.79-3.59-2.01-4.46-3.69,0,0-1.62-3.15-.01-3.94,1.03-.5,2.6-.29,3.71-.29,2.15-.01,4.31,0,6.48-.15,3.25-.23,6.7-.87,9.31-2.96,2.09-1.68,3.09-4.1,3.78-6.61.34-1.26.59-2.53.94-3.79.14-.54.25-1.22.53-1.72.06-.11.98-1.26,1.03-1.11l.7-4.19Z"/>
            <path class="st8" d="M169.19,175.38s.06,2.37-1.46,2.78"/>
            <path class="st8" d="M173.75,179.52s-.24,2.35-1.4,2.98"/>
            <path class="st8" d="M198.47,159.23s-2.78.73-4.41-.22"/>
            <path class="st8" d="M196.44,159.77s6.12,9.98-.48,16.92c-6.6,6.95-21.74,5.86-22.78,4.82"/>
          </g>
          <g>
            <circle class="st8" cx="126.86" cy="114.91" r="12.17" transform="translate(-15.91 20.49) rotate(-8.69)"/>
            <path class="st11" d="M137.21,114.91c0,5.72-4.63,10.35-10.35,10.35s-10.35-4.63-10.35-10.35,4.63-10.35,10.35-10.35,10.35,4.63,10.35,10.35Z"/>
            <g>
              <line class="st11" x1="126.86" y1="104.56" x2="126.86" y2="125.26"/>
              <line class="st11" x1="137.21" y1="114.91" x2="116.51" y2="114.91"/>
            </g>
            <g>
              <line class="st11" x1="134.18" y1="107.59" x2="119.54" y2="122.23"/>
              <line class="st11" x1="134.18" y1="122.23" x2="119.54" y2="107.59"/>
            </g>
            <circle class="st6" cx="126.86" cy="114.91" r="1.7" transform="translate(-1.24 1.38) rotate(-.62)"/>
          </g>
          <g>
            <path class="st6" d="M138.89,154.29s-10.52-.35-12.57-11.72c0,0,14.42-.16,12.57,11.72Z"/>
            <path class="st6" d="M126.32,142.58s7.15,4.24,12.57,11.72"/>
          </g>
          <g>
            <path class="st6" d="M134.3,92.89s-5.72-8.83,2.44-17.01c0,0,8.37,11.75-2.44,17.01Z"/>
            <path class="st6" d="M136.74,75.88s.6,8.29-2.44,17.01"/>
          </g>
          <g>
            <path class="st6" d="M213.37,138.88s-4.48,9.52-15.73,6.92c0,0,5.55-13.31,15.73-6.92Z"/>
            <path class="st6" d="M197.64,145.79s6.72-4.89,15.73-6.92"/>
          </g>
        </g>
        <g>
          <g>
            <g>
              <path class="st1" d="M19.9,22.09c-.96-.28-2.05-.46-2.81-.12-.06-1.26-.65-3.43-3.51-5.47,0,0,2.49-.11,4.39,1.32.27.21.53.44.77.72,1.13,1.29,1.25,2.65,1.17,3.55Z"/>
              <path class="st1" d="M22.01,22.81c.45-1.02,1.05-2.71,1.1-4.46.03-1.4-.29-2.83-1.32-3.98-.53-.6-1.09-1.11-1.64-1.57-2.69-2.22-5.35-2.92-5.35-2.92,0,0,3.33,4.01,3.17,7.93"/>
              <path class="st1" d="M20.15,12.8c.29-4.13-2.4-9.92-2.4-9.92,0,0,2.46,1.67,4.44,4.21.82,1.05,1.56,2.25,2,3.55,1.51,4.41-1.08,7.71-1.08,7.71"/>
              <path class="st1" d="M23.19,8.54c1.11-3.57.84-10.37.84-10.37,0,0,3.04,3.62,3.12,8.4"/>
              <path class="st1" d="M24.4,11.36s3.37-7.18,7.7-9.35c0,0-4.48,8.82-4.8,12.1"/>
              <path class="st1" d="M24.01,16.6s4.78-3.63,7.84-4.64c0,0-4.03,4.91-4.48,6.21"/>
              <path class="st9" d="M25.52,46.53s-.68,2.8-2.47,3.07c0,0-.52,1.31-2.64,1.31,0,0-.93,1.89-2.91,1.23,0,0-2.25.61-3.75-.32-.06-.04-.12-.08-.18-.12,0,0-.39,0-.81-.06-.38-.19-.7-.4-.7-.4-.07,0-.15,0-.22,0-1.76-.06-3.28-1.83-3.28-1.83-2-.56-1.72-2.65-1.72-2.65-1.75-1.18-1.45-2.56-1.45-2.56-1.33-1.22-.33-3.92-.33-3.92-.98-2.18.69-3.91.69-3.91-.77-2,1.58-3.69,1.58-3.69-.4-2.94,1.62-3.21,1.62-3.21.17-2.48,1.61-2.56,1.61-2.56-.08-3.21,2.18-3.28,2.18-3.28,1.54-2.94,4.2-1.6,4.2-1.6.04-.02.08-.04.12-.06.77-.33,1.86-.16,2.81.12.72.21,1.36.49,1.72.65.11.02.24.04.39.07.96.18,2.61.6,3.48,1.43.17.15.3.32.4.51,0,0,2.94.37,2.58,3.67,0,0,1.83,1.32-.03,3.94,0,0,1.15.88-.1,3.02,0,0,1.53,1.36-.45,3.58,0,0,1,2.72-.76,3.94,0,0,.42,2.37-1.61,3.63Z"/>
              <path class="st1" d="M22.86,20.37s2.03-1.24,4.52-2.2c2.23-.86,4.82-1.49,6.66-.79,0,0-6.5,3.85-8.55,6.86"/>
              <path class="st1" d="M28.84,9.15s3.73-4.02,7.76-2.78c0,0-5.22,3.39-6.39,6.29"/>
            </g>
            <path class="st1" d="M22.01,22.81s3,4.6,6.47,5.62c0,0-6.93,2.83-17.89-1.53,0,0,5.31,9.95,17.3,12.07,0,0-11.52,2.67-22.12-2.6,0,0,2.96,8.56,17.28,13.24,0,0-9.7.18-16.2-2.84,0,0,4.11,3.62,10.65,5.38"/>
            <path class="st1" d="M16.96,22.02s4.43,7.14,11.48,10.34c0,0-9.37,2.39-19.47-2.91,0,0,3.12,9.74,18.16,13.45,0,0-11.25,2.78-22.05-2.63,0,0,5.27,9.19,15.33,10.64"/>
            <path class="st1" d="M25.89,24.76s-4.92,2.21-13.12-1.14c0,0,5.91,9.63,15.57,11.77,0,0-10.73,4.3-20.99-2.72,0,0,3.93,10.88,18.17,13.86,0,0-10.79,1.02-20.11-2.34"/>
          </g>
          <g>
            <path class="st6" d="M61.49,58.64c-2,6.92-9.56,10.73-16.42,7.96-5.21-2.1-8.36-7.64-7.5-13.19.31-2.02,1.16-4.27,2.49-5.85,1.39-1.65,3.46-2.93,4.54-4.81.87-1.5,1.29-3.22,2.27-4.66,2.05-3,5.2-4.82,8.87-3.76,2.77.8,4.73,3.18,5.44,5.92.61,2.33-.28,4.41-.44,6.69-.29,4.08,1.93,7.61.75,11.7Z"/>
            <path class="st8" d="M53.5,36.02s-3.51-.79-5.39,3.4"/>
            <path class="st8" d="M59.42,59.7s-2.36,5.45-7.62,5.72"/>
            <path class="st8" d="M54.98,34.11s2.33-5.09.74-8.08c0,0,1.9-.9,2.44-.72.54.17.58,4.58-1.89,9.18"/>
            <path class="st8" d="M58.06,29.75s2.02-5.43,7.06-4.35c0,0-.68,5.38-7.51,6.01"/>
            <path class="st8" d="M57.82,30.59s5.1-2.71,6.96-5.29"/>
          </g>
          <g>
            <path class="st6" d="M11.61,118.01c-3.45,10.65-13.88,16.82-24.94,15.55-10.06-1.16-16.35-10.04-19.15-19.07-.57-1.84-1.01-3.71-1.33-5.6-.1-.58-.12-1.3.31-1.65.04-.03.07-.06.12-.08.25-.15.57-.14.87-.13.56.03,1.12.06,1.67.1-.26.33-.24.89-.16,1.35.29,1.68.68,3.34,1.18,4.97,2.48,8.01,8.05,15.88,16.98,16.9,9.8,1.13,19.05-4.34,22.1-13.79.42-1.28,1.83-4.71.7-6.09.3.03.6.05.91.07.43.03.89.06,1.24.32,1.77,1.3,0,5.61-.5,7.15Z"/>
            <path class="st8" d="M9.27,116.56c-3.05,9.45-12.31,14.93-22.1,13.79-8.92-1.02-14.5-8.9-16.98-16.9-.5-1.63-.89-3.3-1.18-4.97-.08-.46-.1-1.02.16-1.35.43.03.85.06,1.27.1-.13.31-.1.71-.04,1.06.27,1.56.63,3.12,1.1,4.65,2.31,7.5,7.54,14.86,15.89,15.83,9.17,1.06,17.84-4.07,20.69-12.91.37-1.14,1.58-4.08.8-5.48.36.03.71.06,1.08.08,1.13,1.38-.29,4.81-.7,6.09Z"/>
            <path class="st5" d="M8.1,115.86c-2.86,8.85-11.53,13.97-20.69,12.91-8.36-.96-13.58-8.33-15.89-15.83-.47-1.53-.84-3.09-1.1-4.65-.06-.34-.09-.75.04-1.06,2.42.18,4.85.45,7.25.64,7.17.58,14.34,1.16,21.52,1.75,3.22.27,6.44.54,9.68.76.79,1.4-.43,4.34-.8,5.48Z"/>
            <path class="st12" d="M1.45,119.11s-.53,1.79.14,2.33c.67.54-.14-2.33-.14-2.33Z"/>
            <path class="st12" d="M4.38,113.39s-.53,1.79.14,2.33c.67.54-.14-2.33-.14-2.33Z"/>
          </g>
          <g>
            <path class="st6" d="M29.56,78.06c.19,2.83.45,9.93-2.26,11.89-2.24,1.63-7.22-1.11-9.15-2.19-1.91-1.07-3.73-2.39-5.2-4.01-1.03-1.15-2.19-2.57-2.14-4.19,0-.17.02-.34.05-.49.04-.21.1-.41.18-.61.58-.12,1.23-.32,1.89-.63,1.55-.71,2.9-2.65,3.18-3.07-.18.4-.85,1.97-.5,3.08.4,1.27,1.73,1.87,1.73,1.87,0,0-.03-3,.77-4.2.81-1.2.79-2.55.79-2.55,0,0,1.18.21,2.03,1.62.86,1.4,1.53,1.73,1.53,1.73,0,0,.4-1.26-.64-3.15-.89-1.6-1.25-1.74-1.32-1.74.15-.06,1.17-.35,3.09.23,1.15.35,2.42-.15,3.32-.69.28.2.53.45.76.74,1.37,1.72,1.72,4.22,1.87,6.35Z"/>
            <path class="st0" d="M25.7,86.79s.03.94.43,1.09c.4.15-.43-1.09-.43-1.09Z"/>
            <path class="st0" d="M26.65,83.03s.03.94.43,1.09-.43-1.09-.43-1.09Z"/>
            <path class="st0" d="M26.82,78.38s.03.94.43,1.09-.43-1.09-.43-1.09Z"/>
            <path class="st0" d="M21.15,85.97s.28.89.71.92c.43.03-.71-.92-.71-.92Z"/>
            <path class="st0" d="M17.26,83.74s.28.89.71.92c.43.03-.71-.92-.71-.92Z"/>
            <path class="st0" d="M23.14,83.21s.03.94.43,1.09c.4.15-.43-1.09-.43-1.09Z"/>
            <path class="st0" d="M23.38,79.24s.03.94.43,1.09c.4.15-.43-1.09-.43-1.09Z"/>
            <path class="st0" d="M19.4,76.43s.03.94.43,1.09c.4.15-.43-1.09-.43-1.09Z"/>
            <path class="st0" d="M23.35,72.59s.03.94.43,1.09-.43-1.09-.43-1.09Z"/>
            <path class="st0" d="M12.89,78.82s.03.94.43,1.09c.4.15-.43-1.09-.43-1.09Z"/>
            <path class="st0" d="M25.72,75s.03.94.43,1.09c.4.15-.43-1.09-.43-1.09Z"/>
            <path class="st0" d="M19.23,81.28s.03.94.43,1.09c.4.15-.43-1.09-.43-1.09Z"/>
            <path class="st0" d="M14.29,81.88s.03.94.43,1.09c.4.15-.43-1.09-.43-1.09Z"/>
            <path class="st8" d="M28.18,70.09s-.51.45-1.26.88c-.91.54-2.18,1.03-3.32.69-1.92-.58-2.94-.29-3.09-.23.08,0,.44.13,1.32,1.74,1.04,1.89.64,3.15.64,3.15,0,0-.68-.32-1.53-1.73-.85-1.41-2.03-1.62-2.03-1.62,0,0,.02,1.35-.79,2.55-.8,1.2-.77,4.2-.77,4.2,0,0-1.33-.6-1.73-1.87-.35-1.11.31-2.67.5-3.08-.28.42-1.63,2.36-3.18,3.07-.66.31-1.32.5-1.89.63-.83.17-1.46.21-1.62.21.22-.06,1.38-.48,2.57-3.14,1.32-2.96,3.61-3.56,3.61-3.56.23-.76-.78-2.6-.78-2.6.64-1.09,1.74-1.15,1.74-1.15,0,1.05.67,2.19.67,2.19,0,0,2.41-2.64,5.71-1.48,3.29,1.15,5.27,1.15,5.27,1.15Z"/>
          </g>
          <g>
            <path class="st8" d="M36.73,121.98c-2.09-.38-4.67-1.27-6.02-3.05,0,0-.2-.27-.45-.66h0c-.54-.91-1.26-2.47-.27-3.21.93-.69,2.51-.76,3.59-.96,2.13-.4,4.26-.79,6.35-1.31,3.15-.81,6.44-2.08,8.63-4.6,1.75-2.02,2.3-4.58,2.51-7.19.11-1.29.13-2.59.25-3.88.05-.56.03-1.26.21-1.79.04-.12.75-1.46.8-1.27l-.07-4.25-.03-1.26s2.03-1.11,3.32.53c1.28,1.64-.71,2.46.41,5.14.78,1.88,2.73,3.22,3.76,4.99,8.31,14.14-10.97,25-22.99,22.77Z"/>
            <path class="st8" d="M52.26,89.82l.07,4.25c-.05-.19-.76,1.15-.8,1.27-.18.53-.16,1.23-.21,1.79-.12,1.29-.14,2.59-.25,3.88-.21,2.6-.76,5.16-2.51,7.19-2.19,2.52-5.48,3.79-8.63,4.6-2.09.53-4.23.91-6.35,1.31-1.08.2-2.66.27-3.59.96-.99.73-.27,2.3.27,3.2-1.76-.79-3.59-2.01-4.46-3.69,0,0-1.62-3.15-.01-3.94,1.03-.5,2.6-.29,3.71-.29,2.15-.01,4.31,0,6.48-.15,3.25-.23,6.7-.87,9.31-2.96,2.09-1.68,3.09-4.1,3.78-6.61.34-1.26.59-2.53.94-3.79.14-.54.25-1.22.53-1.72.06-.11.98-1.26,1.03-1.11l.7-4.19Z"/>
            <path class="st8" d="M26.69,110.38s.06,2.37-1.46,2.78"/>
            <path class="st8" d="M31.25,114.52s-.24,2.35-1.4,2.98"/>
            <path class="st8" d="M55.97,94.23s-2.78.73-4.41-.22"/>
            <path class="st8" d="M53.94,94.77s6.12,9.98-.48,16.92c-6.6,6.95-21.74,5.86-22.78,4.82"/>
          </g>
          <g>
            <path class="st6" d="M70.87,73.88s-4.48,9.52-15.73,6.92c0,0,5.55-13.31,15.73-6.92Z"/>
            <path class="st6" d="M55.14,80.79s6.72-4.89,15.73-6.92"/>
          </g>
        </g>
        <g>
          <path class="st6" d="M296.61-11.99c-3.45,10.65-13.88,16.82-24.94,15.55-10.06-1.16-16.35-10.04-19.15-19.07-.57-1.84-1.01-3.71-1.33-5.6-.1-.58-.12-1.3.31-1.65.04-.03.07-.06.12-.08.25-.15.57-.14.87-.13.56.03,1.12.06,1.67.1-.26.33-.24.89-.16,1.35.29,1.68.68,3.34,1.18,4.97,2.48,8.01,8.05,15.88,16.98,16.9,9.8,1.13,19.05-4.34,22.1-13.79.42-1.28,1.83-4.71.7-6.09.3.03.6.05.91.07.43.03.89.06,1.24.32,1.77,1.3,0,5.61-.5,7.15Z"/>
          <path class="st8" d="M294.27-13.44c-3.05,9.45-12.31,14.93-22.1,13.79-8.92-1.02-14.5-8.9-16.98-16.9-.5-1.63-.89-3.3-1.18-4.97-.08-.46-.1-1.02.16-1.35.43.03.85.06,1.27.1-.13.31-.1.71-.04,1.06.27,1.56.63,3.12,1.1,4.65,2.31,7.5,7.54,14.86,15.89,15.83,9.17,1.06,17.83-4.07,20.69-12.91.37-1.14,1.58-4.08.8-5.48.36.03.71.06,1.08.08,1.13,1.38-.29,4.81-.7,6.09Z"/>
        </g>
        <g>
          <path class="st10" d="M93.1-20.33c4.61,5.01,6.95,15.22,1.35,20.4-.1.1-.21.2-.33.3-.5.42-1,.75-1.49.97-.22.28-.49.54-.79.82l-.33.29c-5.94,4.78-15.69.97-19.98-4.33-2.44-3-2.68-6.47-.33-9.65,1.79-2.43,4.87-3.93,7.82-3.46.04-2.92,1.96-5.68,4.57-7.06,3.5-1.86,6.89-1.11,9.51,1.75Z"/>
          <g>
            <path class="st6" d="M203.99-6.36c-2,6.92-9.56,10.73-16.42,7.96-5.21-2.1-8.36-7.64-7.5-13.19.31-2.02,1.16-4.27,2.49-5.85,1.39-1.65,3.46-2.93,4.54-4.81.87-1.5,1.29-3.22,2.27-4.66,2.05-3,5.2-4.82,8.87-3.76,2.77.8,4.73,3.18,5.44,5.92.61,2.33-.28,4.41-.44,6.69-.29,4.08,1.93,7.61.75,11.7Z"/>
            <path class="st8" d="M201.92-5.3s-2.36,5.45-7.62,5.72"/>
          </g>
          <g>
            <path class="st6" d="M154.11,53.01c-3.45,10.65-13.88,16.82-24.94,15.55-10.06-1.16-16.35-10.04-19.15-19.07-.57-1.84-1.01-3.71-1.33-5.6-.1-.58-.12-1.3.31-1.65.04-.03.07-.06.12-.08.25-.15.57-.14.87-.13.56.03,1.12.06,1.67.1-.26.33-.24.89-.16,1.35.29,1.68.68,3.34,1.18,4.97,2.48,8.01,8.05,15.88,16.98,16.9,9.8,1.13,19.05-4.34,22.1-13.79.42-1.28,1.83-4.71.7-6.09.3.03.6.05.91.07.43.03.89.06,1.24.32,1.77,1.3,0,5.61-.5,7.15Z"/>
            <path class="st8" d="M151.77,51.56c-3.05,9.45-12.31,14.93-22.1,13.79-8.92-1.02-14.5-8.9-16.98-16.9-.5-1.63-.89-3.3-1.18-4.97-.08-.46-.1-1.02.16-1.35.43.03.85.06,1.27.1-.13.31-.1.71-.04,1.06.27,1.56.63,3.12,1.1,4.65,2.31,7.5,7.54,14.86,15.89,15.83,9.17,1.06,17.83-4.07,20.69-12.91.37-1.14,1.58-4.08.8-5.48.36.03.71.06,1.08.08,1.13,1.38-.29,4.81-.7,6.09Z"/>
            <path class="st5" d="M150.6,50.86c-2.86,8.85-11.53,13.97-20.69,12.91-8.36-.96-13.58-8.33-15.89-15.83-.47-1.53-.84-3.09-1.1-4.65-.06-.34-.09-.75.04-1.06,2.42.18,4.85.45,7.25.64,7.17.58,14.34,1.16,21.52,1.75,3.22.27,6.44.54,9.68.76.79,1.4-.43,4.34-.8,5.48Z"/>
            <path class="st12" d="M120.3,45.7s-.53,1.79.14,2.33c.67.54-.14-2.33-.14-2.33Z"/>
            <path class="st12" d="M134.19,46.29s-.53,1.79.14,2.33c.67.54-.14-2.33-.14-2.33Z"/>
            <path class="st12" d="M127.72,45.79s-.53,1.79.14,2.33c.67.54-.14-2.33-.14-2.33Z"/>
            <path class="st12" d="M124.83,50.92s-.53,1.79.14,2.33c.67.54-.14-2.33-.14-2.33Z"/>
            <path class="st12" d="M131.67,52.29s-.54,1.79.14,2.33c.67.54-.14-2.33-.14-2.33Z"/>
            <path class="st12" d="M138.81,51.63s-.54,1.79.14,2.33c.67.54-.14-2.33-.14-2.33Z"/>
            <path class="st12" d="M141.84,47.1s-.54,1.79.14,2.33c.67.54-.14-2.33-.14-2.33Z"/>
            <path class="st12" d="M143.95,54.11s-.53,1.79.14,2.33c.67.54-.14-2.33-.14-2.33Z"/>
            <path class="st12" d="M136,57.34s-.53,1.79.14,2.33c.67.54-.14-2.33-.14-2.33Z"/>
            <path class="st12" d="M128.48,57.73s-.54,1.79.14,2.33c.67.54-.14-2.33-.14-2.33Z"/>
            <path class="st12" d="M120.62,53.38s-.54,1.79.14,2.33c.67.54-.14-2.33-.14-2.33Z"/>
            <path class="st12" d="M146.88,48.39s-.53,1.79.14,2.33c.67.54-.14-2.33-.14-2.33Z"/>
          </g>
          <g>
            <path class="st6" d="M172.06,13.06c.19,2.83.45,9.93-2.26,11.89-2.24,1.63-7.22-1.11-9.15-2.19-1.91-1.07-3.73-2.39-5.2-4.01-1.03-1.15-2.19-2.57-2.14-4.19,0-.17.02-.34.05-.49.04-.21.1-.41.18-.61.57-.12,1.23-.32,1.89-.63,1.55-.71,2.9-2.65,3.18-3.07-.18.4-.85,1.97-.5,3.08.4,1.27,1.73,1.87,1.73,1.87,0,0-.03-3,.77-4.2.81-1.2.79-2.55.79-2.55,0,0,1.18.21,2.03,1.62.86,1.4,1.53,1.73,1.53,1.73,0,0,.4-1.26-.64-3.15-.89-1.6-1.25-1.74-1.32-1.74.15-.06,1.17-.35,3.09.23,1.15.35,2.42-.15,3.32-.69.28.2.53.45.76.74,1.37,1.72,1.72,4.22,1.87,6.35Z"/>
            <path class="st0" d="M168.2,21.79s.03.94.43,1.09c.4.15-.43-1.09-.43-1.09Z"/>
            <path class="st0" d="M169.15,18.03s.03.94.43,1.09-.43-1.09-.43-1.09Z"/>
            <path class="st0" d="M169.32,13.38s.03.94.43,1.09-.43-1.09-.43-1.09Z"/>
            <path class="st0" d="M163.65,20.97s.28.89.71.92c.43.03-.71-.92-.71-.92Z"/>
            <path class="st0" d="M159.76,18.74s.28.89.71.92c.43.03-.71-.92-.71-.92Z"/>
            <path class="st0" d="M165.64,18.21s.03.94.43,1.09c.4.15-.43-1.09-.43-1.09Z"/>
            <path class="st0" d="M165.88,14.24s.03.94.43,1.09c.4.15-.43-1.09-.43-1.09Z"/>
            <path class="st0" d="M161.9,11.43s.03.94.43,1.09c.4.15-.43-1.09-.43-1.09Z"/>
            <path class="st0" d="M165.85,7.59s.03.94.43,1.09-.43-1.09-.43-1.09Z"/>
            <path class="st0" d="M155.39,13.82s.03.94.43,1.09c.4.15-.43-1.09-.43-1.09Z"/>
            <path class="st0" d="M168.22,10s.03.94.43,1.09c.4.15-.43-1.09-.43-1.09Z"/>
            <path class="st0" d="M161.73,16.28s.03.94.43,1.09c.4.15-.43-1.09-.43-1.09Z"/>
            <path class="st0" d="M156.79,16.88s.03.94.43,1.09c.4.15-.43-1.09-.43-1.09Z"/>
            <path class="st8" d="M170.68,5.09s-.51.45-1.26.88c-.91.54-2.18,1.03-3.32.69-1.92-.58-2.94-.29-3.09-.23.08,0,.44.13,1.32,1.74,1.04,1.89.64,3.15.64,3.15,0,0-.68-.32-1.53-1.73-.85-1.41-2.03-1.62-2.03-1.62,0,0,.02,1.35-.79,2.55-.8,1.2-.77,4.2-.77,4.2,0,0-1.33-.6-1.73-1.87-.35-1.11.31-2.67.5-3.08-.28.42-1.63,2.36-3.18,3.07-.66.31-1.32.5-1.89.63-.83.17-1.46.21-1.62.21.22-.06,1.38-.48,2.57-3.14,1.32-2.96,3.61-3.56,3.61-3.56.23-.76-.78-2.6-.78-2.6.64-1.09,1.74-1.15,1.74-1.15,0,1.05.67,2.19.67,2.19,0,0,2.41-2.64,5.71-1.48,3.29,1.15,5.27,1.15,5.27,1.15Z"/>
          </g>
          <g>
            <path class="st2" d="M99.17,22.97s5.97-2.53,7.39-6.77c0,0,.9.12,1.47,1.77s-4.9,5.14-7.56,6.05"/>
            <g>
              <path class="st7" d="M99.46,38.13c-1.71.84-3.78.13-4.62-1.58s-.13-3.78,1.58-4.62c1.71-.84,3.78-.13,4.62,1.58.84,1.71.13,3.78-1.58,4.62Z"/>
              <path class="st7" d="M92.19,21.25c-1.71.84-3.78.13-4.62-1.58-.84-1.71-.13-3.78,1.58-4.62,1.71-.84,3.78-.13,4.62,1.58.84,1.71.13,3.78-1.58,4.62Z"/>
              <path class="st7" d="M98.17,24.1c-1.71.84-3.78.13-4.62-1.58-.84-1.71-.13-3.78,1.58-4.62,1.71-.84,3.78-.13,4.62,1.58.84,1.71.13,3.78-1.58,4.62Z"/>
              <path class="st7" d="M100.93,29.72c-1.71.84-3.78.13-4.62-1.58-.84-1.71-.13-3.78,1.58-4.62s3.78-.13,4.62,1.58c.84,1.71.13,3.78-1.58,4.62Z"/>
              <path class="st7" d="M103.79,34.54c-1.71.84-3.78.13-4.62-1.58s-.13-3.78,1.58-4.62c1.71-.84,3.78-.13,4.62,1.58.84,1.71.13,3.78-1.58,4.62Z"/>
              <path class="st7" d="M88.56,36.5c-1.71.84-3.78.13-4.62-1.58-.84-1.71-.13-3.78,1.58-4.62,1.71-.84,3.78-.13,4.62,1.58.84,1.71.13,3.78-1.58,4.62Z"/>
              <path class="st7" d="M88.34,26.99c-1.71.84-3.78.13-4.62-1.58-.84-1.71-.13-3.78,1.58-4.62,1.71-.84,3.78-.13,4.62,1.58.84,1.71.13,3.78-1.58,4.62Z"/>
              <path class="st7" d="M94.87,26.7c-1.71.84-3.78.13-4.62-1.58-.84-1.71-.13-3.78,1.58-4.62,1.71-.84,3.78-.13,4.62,1.58.84,1.71.13,3.78-1.58,4.62Z"/>
              <path class="st7" d="M94.09,37.63c-1.71.84-3.78.13-4.62-1.58-.84-1.71-.13-3.78,1.58-4.62,1.71-.84,3.78-.13,4.62,1.58.84,1.71.13,3.78-1.58,4.62Z"/>
              <path class="st7" d="M97.74,32.54c-1.71.84-3.78.13-4.62-1.58-.84-1.71-.13-3.78,1.58-4.62,1.71-.84,3.78-.13,4.62,1.58.84,1.71.13,3.78-1.58,4.62Z"/>
              <path class="st7" d="M85.16,31.47c-1.71.84-3.78.13-4.62-1.58-.84-1.71-.13-3.78,1.58-4.62,1.71-.84,3.78-.13,4.62,1.58.84,1.71.13,3.78-1.58,4.62Z"/>
              <path class="st7" d="M91.96,31.97c-1.71.84-3.78.13-4.62-1.58-.84-1.71-.13-3.78,1.58-4.62,1.71-.84,3.78-.13,4.62,1.58.84,1.71.13,3.78-1.58,4.62Z"/>
              <path class="st7" d="M81.66,36.05c-1.71.84-3.78.13-4.62-1.58-.84-1.71-.13-3.78,1.58-4.62,1.71-.84,3.78-.13,4.62,1.58.84,1.71.13,3.78-1.58,4.62Z"/>
            </g>
          </g>
          <g>
            <path class="st8" d="M179.23,56.98c-2.09-.38-4.67-1.27-6.02-3.05,0,0-.2-.27-.45-.66h0c-.54-.91-1.26-2.47-.27-3.21.93-.69,2.51-.76,3.59-.96,2.13-.4,4.26-.79,6.35-1.31,3.15-.81,6.44-2.08,8.63-4.6,1.75-2.02,2.3-4.58,2.51-7.19.11-1.29.13-2.59.25-3.88.05-.56.03-1.26.21-1.79.04-.12.75-1.46.8-1.27l-.07-4.25-.03-1.26s2.03-1.11,3.32.53c1.28,1.64-.71,2.46.41,5.14.78,1.88,2.73,3.22,3.76,4.99,8.31,14.14-10.97,25-22.99,22.77Z"/>
            <path class="st8" d="M194.76,24.82l.07,4.25c-.05-.19-.76,1.15-.8,1.27-.18.53-.16,1.23-.21,1.79-.12,1.29-.14,2.59-.25,3.88-.21,2.6-.76,5.16-2.51,7.19-2.19,2.52-5.48,3.79-8.63,4.6-2.09.53-4.23.91-6.35,1.31-1.08.2-2.66.27-3.59.96-.99.73-.27,2.3.27,3.2-1.76-.79-3.59-2.01-4.46-3.69,0,0-1.62-3.15-.01-3.94,1.03-.5,2.6-.29,3.71-.29,2.15-.01,4.31,0,6.48-.15,3.25-.23,6.7-.87,9.31-2.96,2.09-1.68,3.09-4.1,3.78-6.61.34-1.26.59-2.53.94-3.79.14-.54.25-1.22.53-1.72.06-.11.98-1.26,1.03-1.11l.7-4.19Z"/>
            <path class="st8" d="M169.19,45.38s.06,2.37-1.46,2.78"/>
            <path class="st8" d="M173.75,49.52s-.24,2.35-1.4,2.98"/>
            <path class="st8" d="M198.47,29.23s-2.78.73-4.41-.22"/>
            <path class="st8" d="M196.44,29.77s6.12,9.98-.48,16.92c-6.6,6.95-21.74,5.86-22.78,4.82"/>
          </g>
          <g>
            <path class="st6" d="M138.89,24.29s-10.52-.35-12.57-11.72c0,0,14.42-.16,12.57,11.72Z"/>
            <path class="st6" d="M126.32,12.58s7.15,4.24,12.57,11.72"/>
          </g>
          <g>
            <path class="st6" d="M213.37,8.88s-4.48,9.52-15.73,6.92c0,0,5.55-13.31,15.73-6.92Z"/>
            <path class="st6" d="M197.64,15.79s6.72-4.89,15.73-6.92"/>
          </g>
        </g>
        <g>
          <path class="st6" d="M11.61-11.99C8.17-1.34-2.27,4.83-13.32,3.56c-10.06-1.16-16.35-10.04-19.15-19.07-.57-1.84-1.01-3.71-1.33-5.6-.1-.58-.12-1.3.31-1.65.04-.03.07-.06.12-.08.25-.15.57-.14.87-.13.56.03,1.12.06,1.67.1-.26.33-.24.89-.16,1.35.29,1.68.68,3.34,1.18,4.97C-27.34-8.54-21.76-.67-12.84.35-3.04,1.49,6.22-3.99,9.27-13.44c.42-1.28,1.83-4.71.7-6.09.3.03.6.05.91.07.43.03.89.06,1.24.32,1.77,1.3,0,5.61-.5,7.15Z"/>
          <path class="st8" d="M9.27-13.44C6.22-3.99-3.04,1.49-12.84.35c-8.92-1.02-14.5-8.9-16.98-16.9-.5-1.63-.89-3.3-1.18-4.97-.08-.46-.1-1.02.16-1.35.43.03.85.06,1.27.1-.13.31-.1.71-.04,1.06.27,1.56.63,3.12,1.1,4.65,2.31,7.5,7.54,14.86,15.89,15.83C-3.43-.17,5.24-5.29,8.1-14.14c.37-1.14,1.58-4.08.8-5.48.36.03.71.06,1.08.08,1.13,1.38-.29,4.81-.7,6.09Z"/>
        </g>
      </g>
    </pattern>
  </defs>
  <polygon class="st14" points="0 0 0 1080 1920 1080.01 1920 0 0 0"/>
</svg>