<?xml version="1.0" encoding="UTF-8"?>
<svg xmlns="http://www.w3.org/2000/svg" version="1.1" xmlns:inkscape="http://www.inkscape.org/namespaces/inkscape" xmlns:sodipodi="http://sodipodi.sourceforge.net/DTD/sodipodi-0.dtd" xmlns:svg="http://www.w3.org/2000/svg" viewBox="0 0 483.83 178.22">
  <!-- Generator: Adobe Illustrator 30.3.0, SVG Export Plug-In . SVG Version: 2.1.3 Build 182)  -->
  <defs>
    <style>
      .st0 {
        fill: #fff;
      }
    </style>
  </defs>
  <g id="svg1" inkscape:export-filename="logologo-white.png">
    <inkscape:path-effect id="path-effect68" apply_no_radius="true" apply_with_radius="true" chamfer_steps="1" effect="fillet_chamfer" flexible="false" hide_knots="false" is_visible="true" lpeversion="1" method="auto" mode="F" nodesatellites_param="F,0,0,1,0,0,0,1 @ F,0,0,1,0,0,0,1 @ F,0,0,1,0,0,0,1 @ F,0,0,1,0,0,0,1 @ F,0,0,1,0,0,0,1 @ F,0,0,1,0,50,0,1 @ F,0,0,1,0,0,0,1 @ F,0,0,1,0,0,0,1 @ F,0,0,1,0,21.375,0,1 @ F,0,0,1,0,0,0,1 @ F,0,0,1,0,0,0,1 @ F,0,0,1,0,0,0,1 @ F,0,0,1,0,50,0,1 @ F,0,0,1,0,0,0,1 @ F,0,0,1,0,0,0,1 @ F,0,1,1,0,21.375,0,1 @ F,0,0,1,0,0,0,1 @ F,0,0,1,0,0,0,1 @ F,0,0,1,0,0,0,1 @ F,0,0,1,0,0,0,1 @ F,0,0,1,0,0,0,1 @ F,0,0,1,0,0,0,1 @ F,0,0,1,0,0,0,1 @ F,0,0,1,0,0,0,1 @ F,0,0,1,0,0,0,1 @ F,0,0,1,0,0,0,1" only_selected="false" radius="0" unit="px" use_knot_distance="true"/>
    <g>
      <g id="g1" inkscape:groupmode="layer" inkscape:label="Image">
        <path id="path44" class="st0" d="M8.02,5.04v100.55h20.04V31.82l46.92,73.77.04-.02v.02h20.04V5.04h-20.04v63.28L34.77,5.04H8.02Z"/>
        <path id="path65" class="st0" d="M282.71,0l-3.72,5.04-16.32,22.11-13.37,18.11h13.37v36.87c2.78,15.73,17.78,26.24,33.52,23.46v-13.41c-7.68-.23-13.71-6.65-13.48-14.33v-32.6h26.89v36.87c2.78,15.73,17.78,26.24,33.52,23.46v-13.41c-7.68-.23-13.71-6.65-13.48-14.33v-32.6h13.44v-13.41h-13.44l.07-13.41h-20.04l-.07,13.41h-26.89V0Z" sodipodi:nodetypes="cccccccccccccccccccccccccc"/>
        <path id="rect34-3-8" class="st0" d="M175.61,31.85l27.03,36.04-27.83,37.7h20.04l17.89-24.24,43.31,57.75h20.04l-53.41-71.22,26.6-36.04h-20.04l-16.66,22.57-16.93-22.57h-20.04Z" inkscape:transform-center-x="-75.249983" inkscape:transform-center-y="80.000046"/>
        <path id="path60" class="st0" d="M140.34,30.51c-19.44,0-35.19,17.14-35.19,38.28,0,21.14,15.76,38.28,35.19,38.28h0c14.71,0,27.87-9.95,32.99-24.95h-15.16c-4.04,6.39-10.7,10.2-17.83,10.2-10.78,0-19.92-8.64-21.42-20.26h56.49c.09-1.09.13-2.18.13-3.28,0-21.14-15.76-38.28-35.19-38.28ZM140.34,45.26c8.34,0,15.94,5.22,19.53,13.41h-39.06c3.59-8.19,11.19-13.41,19.53-13.41Z"/>
        <path id="path34-1" class="st0" d="M385.01,30.51c-19.44,0-35.19,17.14-35.19,38.28,0,21.14,15.76,38.28,35.19,38.28h0c19.44,0,35.19-17.14,35.19-38.28h0c0-21.14-15.76-38.28-35.19-38.28ZM385.01,45.17c11.99,0,21.71,10.58,21.71,23.62,0,13.04-9.72,23.62-21.71,23.62-11.99,0-21.71-10.58-21.71-23.62,0-13.04,9.72-23.62,21.71-23.62Z"/>
      </g>
      <g>
        <path class="st0" d="M314.53,117.33l25.01,44.5v-44.5h11.75v59.44h-16.58l-25.01-44.5v44.5h-11.69v-59.44h16.52Z"/>
        <path class="st0" d="M355.3,132.19h12.62v22.33c0,7.13,4.42,12.99,9.83,12.99,3.84,0,7.39-3.4,9.07-8.07h-.12v-27.26h11.75v44.58h-11.75v-4.84c-3.2,3.4-7.5,5.43-12.39,5.43-10.47,0-19.02-10.19-19.02-22.84v-22.33Z"/>
        <path class="st0" d="M407.76,132.19v-14.86h11.75v14.86h6.81v9.93h-6.81v24.71h6.81v9.94h-12.56c-3.32,0-5.99-3.14-5.99-6.96v-27.68h-6.8v-9.93h6.8Z"/>
        <path class="st0" d="M442.77,132.19v5.77c3.32-3.99,7.91-6.37,13.2-6.37h3.78v10.53h-7.15c-5.24.25-9.83,5.69-9.83,12.31v22.33h-11.75v-44.58h11.75Z"/>
        <path class="st0" d="M475.81,117.33v9.93h-11.75v-9.93h11.75ZM475.81,132.19v44.58h-11.75v-44.58h11.75Z"/>
      </g>
    </g>
  </g>
</svg>